<?xml version="1.0" encoding="UTF-8" standalone="no"?>
<!DOCTYPE svg PUBLIC "-//W3C//DTD SVG 1.1//EN" "http://www.w3.org/Graphics/SVG/1.1/DTD/svg11.dtd">
<!-- Created with Vectornator (http://vectornator.io/) -->
<svg height="100%" stroke-miterlimit="10" style="fill-rule:nonzero;clip-rule:evenodd;stroke-linecap:round;stroke-linejoin:round;" version="1.1" viewBox="0 0 1024 1024" width="100%" xml:space="preserve" xmlns="http://www.w3.org/2000/svg" xmlns:vectornator="http://vectornator.io" xmlns:xlink="http://www.w3.org/1999/xlink">
<defs/>
<g id="Layer-1" vectornator:layerName="Layer 1">
<path d="M32 160C48 16 96 32 240 64C302.476 77.8835 432 16 432 80C432 144 576 8.46262 576 80C576 176 871.763-32.9498 896 64C912 128 1074.65 58.2799 976 16C928.676-4.28189 896 32 992 128C1020.5 156.5 1024 309.444 960 272C875.997 222.853 1034.65 719.64 919.025 709.952C848 704 1072 960 960 960L767.704 960C767.704 960 208 960 64 960C-16 960 22.9905 241.085 32 160Z" fill="#112500" fill-rule="nonzero" opacity="1" stroke="none" vectornator:layerName="Rectangle 1"/>
</g>
<g id="Layer-2" vectornator:layerName="Layer 2">
<g fill="#bfbfbf" opacity="1" stroke="none" vectornator:layerName="Text 1">
<path d="M162.06 342.997L182.314 342.997L182.314 347.424L174.833 347.424L174.833 368L169.574 368L169.574 347.424L162.06 347.424L162.06 342.997Z" fill="#fefeff"/>
<path d="M190.507 356.838L190.507 368L185.333 368L185.333 342.997L190.507 342.997L190.507 352.53L200.277 352.53L200.277 342.997L205.468 342.997L205.468 368L200.277 368L200.277 356.838L190.507 356.838Z" fill="#fefeff"/>
<path d="M210.048 342.997L215.239 342.997L215.239 368L210.048 368L210.048 342.997Z" fill="#fefeff"/>
<path d="M228.588 352.733L232.897 353.768C234.785 354.22 236.21 354.825 237.172 355.583C238.664 356.759 239.411 358.461 239.411 360.689C239.411 362.973 238.537 364.87 236.79 366.38C235.043 367.89 232.575 368.645 229.386 368.645C226.129 368.645 223.567 367.901 221.701 366.414C219.835 364.927 218.903 362.883 218.903 360.282L223.89 360.282C224.048 361.424 224.359 362.278 224.823 362.843C225.671 363.872 227.124 364.387 229.182 364.387C230.415 364.387 231.415 364.251 232.184 363.98C233.643 363.46 234.373 362.493 234.373 361.079C234.373 360.254 234.011 359.615 233.287 359.162C232.563 358.721 231.427 358.331 229.878 357.992L227.231 357.398C224.63 356.81 222.832 356.171 221.837 355.481C220.152 354.328 219.31 352.524 219.31 350.07C219.31 347.831 220.124 345.971 221.752 344.489C223.381 343.008 225.772 342.267 228.928 342.267C231.563 342.267 233.81 342.966 235.67 344.362C237.531 345.759 238.506 347.786 238.596 350.443L233.575 350.443C233.485 348.939 232.829 347.871 231.608 347.237C230.794 346.819 229.781 346.61 228.571 346.61C227.226 346.61 226.151 346.881 225.348 347.424C224.546 347.967 224.144 348.724 224.144 349.697C224.144 350.59 224.54 351.258 225.331 351.699C225.84 351.993 226.926 352.338 228.588 352.733Z" fill="#fefeff"/>
<path d="M251.861 342.997L257.052 342.997L257.052 368L251.861 368L251.861 342.997Z" fill="#fefeff"/>
<path d="M270.402 352.733L274.711 353.768C276.599 354.22 278.024 354.825 278.985 355.583C280.478 356.759 281.224 358.461 281.224 360.689C281.224 362.973 280.351 364.87 278.604 366.38C276.856 367.89 274.388 368.645 271.199 368.645C267.942 368.645 265.381 367.901 263.515 366.414C261.649 364.927 260.716 362.883 260.716 360.282L265.703 360.282C265.862 361.424 266.173 362.278 266.636 362.843C267.484 363.872 268.937 364.387 270.996 364.387C272.228 364.387 273.229 364.251 273.998 363.98C275.457 363.46 276.186 362.493 276.186 361.079C276.186 360.254 275.824 359.615 275.101 359.162C274.377 358.721 273.24 358.331 271.691 357.992L269.045 357.398C266.444 356.81 264.646 356.171 263.651 355.481C261.966 354.328 261.123 352.524 261.123 350.07C261.123 347.831 261.937 345.971 263.566 344.489C265.194 343.008 267.586 342.267 270.741 342.267C273.376 342.267 275.624 342.966 277.484 344.362C279.344 345.759 280.32 347.786 280.41 350.443L275.389 350.443C275.299 348.939 274.643 347.871 273.421 347.237C272.607 346.819 271.595 346.61 270.385 346.61C269.039 346.61 267.965 346.881 267.162 347.424C266.359 347.967 265.958 348.724 265.958 349.697C265.958 350.59 266.353 351.258 267.145 351.699C267.654 351.993 268.74 352.338 270.402 352.733Z" fill="#fefeff"/>
<path d="M308.67 353.378L307.788 348.544L306.906 353.378L303.887 368L299.035 368L291.945 342.997L297.492 342.997L300.799 357.313L301.512 361.3L302.241 357.398L305.057 342.997L310.57 342.997L313.539 357.313L314.302 361.3L315.065 357.466L318.407 342.997L323.716 342.997L316.677 368L311.69 368L308.67 353.378Z" fill="#fefeff"/>
<path d="M332.011 356.838L332.011 368L326.838 368L326.838 342.997L332.011 342.997L332.011 352.53L341.782 352.53L341.782 342.997L346.973 342.997L346.973 368L341.782 368L341.782 356.838L332.011 356.838Z" fill="#fefeff"/>
<path d="M371.06 363.505L371.06 368L352.112 368L352.112 342.997L370.449 342.997L370.449 347.424L357.218 347.424L357.218 352.733L369.364 352.733L369.364 357.076L357.218 357.076L357.218 363.505L371.06 363.505Z" fill="#fefeff"/>
<path d="M391.568 343.641C392.507 344.037 393.304 344.619 393.96 345.388C394.503 346.022 394.932 346.723 395.249 347.492C395.566 348.261 395.724 349.137 395.724 350.121C395.724 351.308 395.424 352.476 394.825 353.624C394.226 354.772 393.236 355.583 391.856 356.058C393.01 356.522 393.827 357.18 394.308 358.034C394.788 358.888 395.028 360.191 395.028 361.944L395.028 363.624C395.028 364.766 395.074 365.54 395.164 365.947C395.3 366.592 395.617 367.067 396.114 367.372L396.114 368L390.364 368C390.205 367.446 390.092 366.999 390.024 366.66C389.889 365.959 389.815 365.241 389.804 364.506L389.77 362.182C389.747 360.587 389.456 359.524 388.896 358.993C388.337 358.461 387.288 358.195 385.75 358.195L380.356 358.195L380.356 368L375.25 368L375.25 342.997L387.514 342.997C389.267 343.031 390.618 343.245 391.568 343.641ZM390.482 350.834C390.482 349.318 389.979 348.3 388.973 347.78C388.407 347.486 387.559 347.339 386.428 347.339L380.356 347.339L380.356 354.056L386.276 354.056C387.452 354.056 388.334 353.921 388.922 353.649C389.962 353.174 390.482 352.236 390.482 350.834Z" fill="#fefeff"/>
<path d="M419.319 363.505L419.319 368L400.372 368L400.372 342.997L418.709 342.997L418.709 347.424L405.478 347.424L405.478 352.733L417.623 352.733L417.623 357.076L405.478 357.076L405.478 363.505L419.319 363.505Z" fill="#fefeff"/>
<path d="M444.204 368L438.979 368L438.979 358.603L430.328 342.997L436.486 342.997L441.677 353.887L446.647 342.997L452.567 342.997L444.204 358.603L444.204 368Z" fill="#fefeff"/>
<path d="M474.805 345.151C477.327 347.447 478.588 350.884 478.588 355.464C478.588 359.954 477.327 363.392 474.805 365.778C472.917 367.723 470.186 368.695 466.612 368.695C463.038 368.695 460.307 367.723 458.419 365.778C455.886 363.392 454.619 359.954 454.619 355.464C454.619 350.884 455.886 347.447 458.419 345.151C460.307 343.206 463.038 342.233 466.612 342.233C470.186 342.233 472.917 343.206 474.805 345.151ZM466.612 346.661C464.543 346.661 462.891 347.424 461.659 348.951C460.426 350.477 459.81 352.649 459.81 355.464C459.81 358.28 460.426 360.452 461.659 361.978C462.891 363.505 464.543 364.268 466.612 364.268C468.681 364.268 470.324 363.505 471.54 361.978C472.755 360.452 473.363 358.28 473.363 355.464C473.363 352.66 472.755 350.491 471.54 348.959C470.324 347.427 468.681 346.661 466.612 346.661Z" fill="#fefeff"/>
<path d="M501.437 364.573C499.899 367.288 496.964 368.645 492.633 368.645C488.302 368.645 485.362 367.288 483.812 364.573C482.987 363.092 482.574 361.023 482.574 358.365L482.574 342.997L487.884 342.997L487.884 358.365C487.884 360.084 488.087 361.339 488.494 362.131C489.127 363.533 490.507 364.234 492.633 364.234C494.748 364.234 496.122 363.533 496.755 362.131C497.162 361.339 497.366 360.084 497.366 358.365L497.366 342.997L502.675 342.997L502.675 358.365C502.675 361.023 502.262 363.092 501.437 364.573Z" fill="#fefeff"/>
<path d="M509.918 347.543L507.255 347.543L507.255 343.081L512.09 343.081L512.09 346.661C512.09 348.368 511.674 349.714 510.843 350.698C510.012 351.682 508.844 352.321 507.34 352.615L507.34 350.834C508.448 350.483 509.212 349.889 509.63 349.052C509.856 348.555 509.952 348.052 509.918 347.543Z" fill="#fefeff"/>
<path d="M522.539 342.997L522.539 363.505L534.922 363.505L534.922 368L517.314 368L517.314 342.997L522.539 342.997Z" fill="#fefeff"/>
<path d="M543.759 342.997L543.759 363.505L556.142 363.505L556.142 368L538.535 368L538.535 342.997L543.759 342.997Z" fill="#fefeff"/>
<path d="M580.162 368L568.831 368L568.831 342.997L580.976 342.997C584.041 343.042 586.212 343.93 587.49 345.66C588.259 346.723 588.643 347.995 588.643 349.476C588.643 351.003 588.259 352.23 587.49 353.157C587.06 353.678 586.427 354.153 585.59 354.582C586.868 355.046 587.832 355.781 588.482 356.788C589.132 357.794 589.457 359.015 589.457 360.452C589.457 361.933 589.084 363.262 588.338 364.438C587.863 365.218 587.269 365.874 586.557 366.405C585.754 367.016 584.807 367.435 583.716 367.661C582.624 367.887 581.44 368 580.162 368ZM582.52 363.216C583.628 362.674 584.182 361.633 584.182 360.095C584.182 358.795 583.645 357.901 582.571 357.415C581.971 357.144 581.129 357.002 580.043 356.991L573.818 356.991L573.818 363.657L579.958 363.657C581.055 363.657 581.909 363.51 582.52 363.216ZM582.299 347.729C581.519 347.469 580.524 347.339 579.314 347.339L573.818 347.339L573.818 352.852L579.958 352.852C581.055 352.852 581.946 352.646 582.63 352.233C583.314 351.82 583.656 351.088 583.656 350.036C583.656 348.871 583.204 348.102 582.299 347.729Z" fill="#fefeff"/>
<path d="M612.934 363.505L612.934 368L593.987 368L593.987 342.997L612.323 342.997L612.323 347.424L599.092 347.424L599.092 352.733L611.238 352.733L611.238 357.076L599.092 357.076L599.092 363.505L612.934 363.505Z" fill="#fefeff"/>
<path d="M639.057 342.997L647.912 368L642.246 368L640.635 362.86L631.424 362.86L629.694 368L624.231 368L633.154 342.997L639.057 342.997ZM636.055 348.713L632.832 358.552L639.176 358.552L636.055 348.713Z" fill="#fefeff"/>
<path d="M662.5 368L651.169 368L651.169 342.997L663.314 342.997C666.379 343.042 668.55 343.93 669.828 345.66C670.597 346.723 670.981 347.995 670.981 349.476C670.981 351.003 670.597 352.23 669.828 353.157C669.398 353.678 668.765 354.153 667.928 354.582C669.206 355.046 670.17 355.781 670.82 356.788C671.47 357.794 671.795 359.015 671.795 360.452C671.795 361.933 671.422 363.262 670.676 364.438C670.201 365.218 669.607 365.874 668.895 366.405C668.092 367.016 667.145 367.435 666.054 367.661C664.962 367.887 663.778 368 662.5 368ZM664.858 363.216C665.966 362.674 666.52 361.633 666.52 360.095C666.52 358.795 665.983 357.901 664.909 357.415C664.309 357.144 663.467 357.002 662.381 356.991L656.156 356.991L656.156 363.657L662.296 363.657C663.393 363.657 664.247 363.51 664.858 363.216ZM664.637 347.729C663.857 347.469 662.862 347.339 661.652 347.339L656.156 347.339L656.156 352.852L662.296 352.852C663.393 352.852 664.284 352.646 664.968 352.233C665.652 351.82 665.994 351.088 665.994 350.036C665.994 348.871 665.542 348.102 664.637 347.729Z" fill="#fefeff"/>
<path d="M681.396 342.997L681.396 363.505L693.779 363.505L693.779 368L676.172 368L676.172 342.997L681.396 342.997Z" fill="#fefeff"/>
<path d="M716.493 363.505L716.493 368L697.545 368L697.545 342.997L715.882 342.997L715.882 347.424L702.651 347.424L702.651 352.733L714.796 352.733L714.796 357.076L702.651 357.076L702.651 363.505L716.493 363.505Z" fill="#fefeff"/>
<path d="M727.468 342.997L747.721 342.997L747.721 347.424L740.241 347.424L740.241 368L734.982 368L734.982 347.424L727.468 347.424L727.468 342.997Z" fill="#fefeff"/>
<path d="M769.417 345.151C771.939 347.447 773.2 350.884 773.2 355.464C773.2 359.954 771.939 363.392 769.417 365.778C767.529 367.723 764.797 368.695 761.224 368.695C757.65 368.695 754.919 367.723 753.031 365.778C750.498 363.392 749.231 359.954 749.231 355.464C749.231 350.884 750.498 347.447 753.031 345.151C754.919 343.206 757.65 342.233 761.224 342.233C764.797 342.233 767.529 343.206 769.417 345.151ZM761.224 346.661C759.155 346.661 757.503 347.424 756.271 348.951C755.038 350.477 754.422 352.649 754.422 355.464C754.422 358.28 755.038 360.452 756.271 361.978C757.503 363.505 759.155 364.268 761.224 364.268C763.293 364.268 764.936 363.505 766.152 361.978C767.367 360.452 767.975 358.28 767.975 355.464C767.975 352.66 767.367 350.491 766.152 348.959C764.936 347.427 763.293 346.661 761.224 346.661Z" fill="#fefeff"/>
<path d="M783.615 362.945L783.615 368L778.475 368L778.475 362.945L783.615 362.945ZM778.475 350.24L783.615 350.24L783.615 355.295L778.475 355.295L778.475 350.24Z" fill="#fefeff"/>
<path d="M174.687 462.99C174.687 463.747 174.544 464.457 174.258 465.122C173.972 465.786 173.573 466.369 173.062 466.87C172.551 467.371 171.958 467.764 171.283 468.05C170.608 468.337 169.893 468.48 169.136 468.48C168.38 468.48 167.669 468.337 167.005 468.05C166.34 467.764 165.758 467.371 165.257 466.87C164.756 466.369 164.362 465.786 164.076 465.122C163.79 464.457 163.647 463.747 163.647 462.99C163.647 462.234 163.79 461.518 164.076 460.844C164.362 460.169 164.756 459.576 165.257 459.065C165.758 458.554 166.34 458.155 167.005 457.869C167.669 457.583 168.38 457.439 169.136 457.439C169.893 457.439 170.608 457.583 171.283 457.869C171.958 458.155 172.551 458.554 173.062 459.065C173.573 459.576 173.972 460.169 174.258 460.844C174.544 461.518 174.687 462.234 174.687 462.99Z"/>
<path d="M187.254 474L187.254 451.919L201.944 451.919L201.944 453.698L189.34 453.698L189.34 461.672L200.718 461.672L200.718 463.45L189.34 463.45L189.34 472.221L202.251 472.221L202.251 474L187.254 474Z"/>
<path d="M205.993 474L205.993 451.919L213.537 451.919C214.15 451.919 214.753 451.935 215.346 451.965C215.939 451.996 216.522 452.067 217.094 452.18C217.667 452.292 218.224 452.461 218.766 452.686C219.307 452.911 219.834 453.207 220.345 453.575C221.081 454.107 221.684 454.756 222.154 455.523C222.625 456.289 222.998 457.097 223.274 457.945C223.55 458.794 223.744 459.653 223.857 460.521C223.969 461.39 224.025 462.193 224.025 462.929C224.025 463.665 223.979 464.411 223.887 465.168C223.795 465.924 223.647 466.665 223.442 467.391C223.238 468.117 222.967 468.812 222.63 469.476C222.292 470.141 221.868 470.749 221.357 471.301C220.846 471.874 220.289 472.334 219.686 472.681C219.083 473.029 218.449 473.3 217.784 473.494C217.12 473.688 216.43 473.821 215.714 473.893C214.999 473.964 214.273 474 213.537 474L205.993 474ZM208.078 472.221L213.077 472.221C214.017 472.221 214.902 472.165 215.73 472.053C216.558 471.94 217.401 471.659 218.26 471.209C218.996 470.841 219.599 470.34 220.069 469.707C220.539 469.073 220.912 468.383 221.188 467.636C221.464 466.89 221.659 466.108 221.771 465.29C221.884 464.473 221.94 463.685 221.94 462.929C221.94 462.132 221.889 461.319 221.786 460.491C221.684 459.663 221.49 458.876 221.204 458.129C220.918 457.383 220.529 456.698 220.038 456.075C219.548 455.451 218.914 454.935 218.137 454.526C217.483 454.178 216.706 453.953 215.806 453.851C214.907 453.749 213.997 453.698 213.077 453.698L208.078 453.698L208.078 472.221Z"/>
<path d="M228.871 474L228.871 451.919L230.956 451.919L230.956 474L228.871 474Z"/>
<path d="M234.667 451.919L250.737 451.919L250.737 453.698L243.745 453.698L243.745 474L241.659 474L241.659 453.698L234.667 453.698L234.667 451.919Z"/>
<path d="M268.426 462.561L275.081 451.919L277.503 451.919L269.499 464.37L269.499 474L267.414 474L267.414 464.524L259.532 451.919L261.924 451.919L268.426 462.561Z"/>
<path d="M279.527 462.99C279.527 461.375 279.747 459.862 280.187 458.451C280.626 457.041 281.276 455.809 282.134 454.756C282.993 453.703 284.056 452.87 285.324 452.257C286.591 451.643 288.053 451.336 289.709 451.336C291.427 451.336 292.934 451.638 294.233 452.241C295.531 452.844 296.615 453.672 297.483 454.725C298.352 455.778 299.007 457.015 299.446 458.436C299.886 459.857 300.106 461.375 300.106 462.99C300.106 464.585 299.886 466.083 299.446 467.483C299.007 468.884 298.357 470.11 297.499 471.163C296.64 472.216 295.567 473.049 294.279 473.663C292.991 474.276 291.498 474.583 289.801 474.583C288.104 474.583 286.612 474.276 285.324 473.663C284.036 473.049 282.962 472.216 282.104 471.163C281.245 470.11 280.601 468.884 280.171 467.483C279.742 466.083 279.527 464.585 279.527 462.99ZM289.832 472.804C291.263 472.804 292.495 472.533 293.527 471.991C294.56 471.449 295.408 470.729 296.073 469.829C296.737 468.93 297.228 467.887 297.545 466.701C297.862 465.515 298.02 464.278 298.02 462.99C298.02 461.457 297.831 460.082 297.453 458.865C297.075 457.649 296.528 456.611 295.812 455.753C295.096 454.894 294.228 454.24 293.205 453.79C292.183 453.34 291.038 453.115 289.77 453.115C288.36 453.115 287.138 453.391 286.106 453.943C285.073 454.495 284.225 455.226 283.56 456.136C282.896 457.046 282.405 458.094 282.088 459.279C281.771 460.465 281.613 461.702 281.613 462.99C281.613 464.299 281.771 465.546 282.088 466.732C282.405 467.918 282.896 468.96 283.56 469.86C284.225 470.759 285.073 471.475 286.106 472.007C287.138 472.538 288.38 472.804 289.832 472.804Z"/>
<path d="M304.276 451.919L306.362 451.919L306.362 465.076C306.362 467.815 306.873 469.788 307.895 470.995C308.917 472.201 310.563 472.804 312.833 472.804C314.019 472.804 315.025 472.646 315.853 472.329C316.681 472.012 317.351 471.531 317.862 470.887C318.373 470.243 318.741 469.441 318.966 468.48C319.191 467.519 319.304 466.384 319.304 465.076L319.304 451.919L321.389 451.919L321.389 465.689C321.389 468.572 320.679 470.775 319.258 472.298C317.837 473.821 315.695 474.583 312.833 474.583C309.95 474.583 307.803 473.806 306.392 472.252C304.982 470.698 304.276 468.51 304.276 465.689L304.276 451.919Z"/>
<path d="M334.944 462.193C335.721 462.193 336.442 462.111 337.106 461.948C337.771 461.784 338.348 461.523 338.839 461.166C339.33 460.808 339.718 460.353 340.004 459.801C340.291 459.249 340.434 458.584 340.434 457.807C340.434 456.99 340.285 456.315 339.989 455.783C339.693 455.252 339.294 454.833 338.793 454.526C338.292 454.219 337.72 454.005 337.076 453.882C336.432 453.759 335.762 453.698 335.067 453.698L328.443 453.698L328.443 462.193L334.944 462.193ZM328.443 463.972L328.443 474L326.357 474L326.357 451.919L335.006 451.919C337.438 451.919 339.299 452.374 340.587 453.284C341.875 454.194 342.519 455.671 342.519 457.715C342.519 459.106 342.238 460.21 341.676 461.028C341.114 461.845 340.199 462.54 338.931 463.113C339.585 463.338 340.096 463.665 340.464 464.094C340.832 464.524 341.108 465.014 341.292 465.566C341.476 466.118 341.594 466.701 341.645 467.314C341.696 467.928 341.732 468.521 341.752 469.093C341.773 469.931 341.809 470.627 341.86 471.179C341.911 471.731 341.972 472.18 342.044 472.528C342.115 472.876 342.202 473.146 342.304 473.341C342.407 473.535 342.529 473.683 342.672 473.785L342.672 474L340.372 474C340.147 473.632 339.989 473.121 339.897 472.467C339.805 471.812 339.733 471.127 339.682 470.412C339.631 469.696 339.59 469.001 339.56 468.326C339.529 467.652 339.473 467.1 339.391 466.67C339.268 466.077 339.069 465.602 338.793 465.244C338.517 464.887 338.185 464.616 337.796 464.432C337.408 464.248 336.973 464.125 336.493 464.064C336.012 464.002 335.517 463.972 335.006 463.972L328.443 463.972Z"/>
<path d="M354.78 474L354.78 451.919L369.47 451.919L369.47 453.698L356.865 453.698L356.865 461.672L368.243 461.672L368.243 463.45L356.865 463.45L356.865 472.221L369.776 472.221L369.776 474L354.78 474Z"/>
<path d="M373.426 474L373.426 451.919L376.615 451.919L383.853 471.393L383.914 471.393L391.029 451.919L394.188 451.919L394.188 474L392.102 474L392.102 454.311L392.041 454.311L384.804 474L382.841 474L375.573 454.311L375.511 454.311L375.511 474L373.426 474Z"/>
<path d="M397.04 474L405.719 451.919L408.08 451.919L416.545 474L414.398 474L411.853 467.069L401.794 467.069L399.187 474L397.04 474ZM402.499 465.29L411.147 465.29L406.823 453.698L402.499 465.29Z"/>
<path d="M420.256 474L420.256 451.919L422.341 451.919L422.341 474L420.256 474Z"/>
<path d="M428.045 474L428.045 451.919L430.131 451.919L430.131 472.221L441.968 472.221L441.968 474L428.045 474Z"/>
<path d="M451.009 474L459.688 451.919L462.049 451.919L470.514 474L468.367 474L465.821 467.069L455.762 467.069L453.156 474L451.009 474ZM456.468 465.29L465.116 465.29L460.792 453.698L456.468 465.29Z"/>
<path d="M475.574 454.741L475.512 454.741L475.512 474L473.427 474L473.427 451.919L475.788 451.919L488.546 471.209L488.608 471.209L488.608 451.919L490.693 451.919L490.693 474L488.27 474L475.574 454.741Z"/>
<path d="M495.631 474L495.631 451.919L503.175 451.919C503.788 451.919 504.391 451.935 504.984 451.965C505.577 451.996 506.16 452.067 506.732 452.18C507.305 452.292 507.862 452.461 508.404 452.686C508.945 452.911 509.472 453.207 509.983 453.575C510.719 454.107 511.322 454.756 511.792 455.523C512.263 456.289 512.636 457.097 512.912 457.945C513.188 458.794 513.382 459.653 513.495 460.521C513.607 461.39 513.663 462.193 513.663 462.929C513.663 463.665 513.617 464.411 513.525 465.168C513.433 465.924 513.285 466.665 513.081 467.391C512.876 468.117 512.605 468.812 512.268 469.476C511.93 470.141 511.506 470.749 510.995 471.301C510.484 471.874 509.927 472.334 509.324 472.681C508.721 473.029 508.087 473.3 507.422 473.494C506.758 473.688 506.068 473.821 505.352 473.893C504.637 473.964 503.911 474 503.175 474L495.631 474ZM497.716 472.221L502.715 472.221C503.655 472.221 504.54 472.165 505.368 472.053C506.196 471.94 507.039 471.659 507.898 471.209C508.634 470.841 509.237 470.34 509.707 469.707C510.177 469.073 510.55 468.383 510.826 467.636C511.102 466.89 511.297 466.108 511.409 465.29C511.522 464.473 511.578 463.685 511.578 462.929C511.578 462.132 511.527 461.319 511.424 460.491C511.322 459.663 511.128 458.876 510.842 458.129C510.556 457.383 510.167 456.698 509.676 456.075C509.186 455.451 508.552 454.935 507.775 454.526C507.121 454.178 506.344 453.953 505.444 453.851C504.545 453.749 503.635 453.698 502.715 453.698L497.716 453.698L497.716 472.221Z"/>
<path d="M525.617 474L525.617 451.919L533.683 451.919C535.114 451.919 536.295 452.083 537.225 452.41C538.155 452.737 538.891 453.187 539.433 453.759C539.975 454.332 540.353 454.991 540.568 455.737C540.782 456.484 540.89 457.266 540.89 458.083C540.89 459.31 540.639 460.322 540.138 461.12C539.637 461.917 538.988 462.546 538.191 463.006C537.394 463.466 536.489 463.788 535.477 463.972C534.465 464.156 533.448 464.248 532.425 464.248L527.703 464.248L527.703 474L525.617 474ZM532.487 462.469C533.468 462.469 534.347 462.408 535.124 462.285C535.901 462.162 536.56 461.932 537.102 461.595C537.644 461.258 538.063 460.798 538.36 460.215C538.656 459.632 538.804 458.871 538.804 457.93C538.804 456.54 538.349 455.487 537.44 454.771C536.53 454.056 535.083 453.698 533.1 453.698L527.703 453.698L527.703 462.469L532.487 462.469Z"/>
<path d="M540.154 474L548.833 451.919L551.194 451.919L559.658 474L557.512 474L554.966 467.069L544.907 467.069L542.3 474L540.154 474ZM545.613 465.29L554.261 465.29L549.937 453.698L545.613 465.29Z"/>
<path d="M563.492 467.406C563.574 468.388 563.793 469.221 564.151 469.906C564.509 470.591 564.969 471.148 565.531 471.577C566.094 472.007 566.743 472.318 567.479 472.513C568.215 472.707 569.002 472.804 569.84 472.804C570.822 472.804 571.67 472.681 572.386 472.436C573.101 472.191 573.684 471.858 574.134 471.439C574.583 471.02 574.916 470.535 575.13 469.983C575.345 469.43 575.452 468.848 575.452 468.234C575.452 467.376 575.258 466.681 574.87 466.149C574.481 465.617 573.975 465.183 573.352 464.846C572.728 464.508 572.012 464.237 571.205 464.033C570.397 463.829 569.569 463.629 568.721 463.435C567.872 463.241 567.044 463.011 566.237 462.745C565.429 462.479 564.714 462.121 564.09 461.672C563.466 461.222 562.96 460.644 562.572 459.939C562.183 459.233 561.989 458.339 561.989 457.255C561.989 456.499 562.148 455.763 562.465 455.047C562.781 454.332 563.252 453.698 563.875 453.146C564.499 452.594 565.281 452.154 566.221 451.827C567.162 451.5 568.245 451.336 569.472 451.336C570.719 451.336 571.808 451.51 572.738 451.858C573.669 452.205 574.44 452.681 575.054 453.284C575.667 453.887 576.127 454.587 576.434 455.385C576.74 456.182 576.894 457.03 576.894 457.93L574.9 457.93C574.9 457.092 574.752 456.366 574.456 455.753C574.159 455.139 573.755 454.638 573.244 454.25C572.733 453.861 572.15 453.575 571.496 453.391C570.842 453.207 570.167 453.115 569.472 453.115C568.409 453.115 567.515 453.263 566.789 453.56C566.063 453.856 565.485 454.24 565.056 454.71C564.627 455.18 564.33 455.702 564.167 456.274C564.003 456.846 563.972 457.419 564.075 457.991C564.197 458.707 564.484 459.279 564.933 459.709C565.383 460.138 565.935 460.491 566.589 460.767C567.244 461.043 567.964 461.268 568.751 461.442C569.539 461.615 570.341 461.799 571.159 461.994C571.977 462.188 572.769 462.418 573.536 462.684C574.302 462.949 574.982 463.307 575.575 463.757C576.168 464.207 576.643 464.784 577.001 465.49C577.359 466.195 577.538 467.079 577.538 468.142C577.538 470.187 576.832 471.771 575.422 472.896C574.011 474.02 572.028 474.583 569.472 474.583C568.327 474.583 567.264 474.434 566.283 474.138C565.301 473.842 564.453 473.392 563.737 472.789C563.022 472.185 562.465 471.439 562.066 470.55C561.667 469.661 561.468 468.613 561.468 467.406L563.492 467.406Z"/>
<path d="M582.23 467.406C582.312 468.388 582.532 469.221 582.889 469.906C583.247 470.591 583.707 471.148 584.269 471.577C584.832 472.007 585.481 472.318 586.217 472.513C586.953 472.707 587.74 472.804 588.578 472.804C589.56 472.804 590.408 472.681 591.124 472.436C591.839 472.191 592.422 471.858 592.872 471.439C593.321 471.02 593.654 470.535 593.868 469.983C594.083 469.43 594.19 468.848 594.19 468.234C594.19 467.376 593.996 466.681 593.608 466.149C593.219 465.617 592.713 465.183 592.09 464.846C591.466 464.508 590.75 464.237 589.943 464.033C589.135 463.829 588.307 463.629 587.459 463.435C586.61 463.241 585.782 463.011 584.975 462.745C584.167 462.479 583.452 462.121 582.828 461.672C582.204 461.222 581.698 460.644 581.31 459.939C580.921 459.233 580.727 458.339 580.727 457.255C580.727 456.499 580.886 455.763 581.203 455.047C581.519 454.332 581.99 453.698 582.613 453.146C583.237 452.594 584.019 452.154 584.959 451.827C585.9 451.5 586.983 451.336 588.21 451.336C589.457 451.336 590.546 451.51 591.476 451.858C592.407 452.205 593.178 452.681 593.792 453.284C594.405 453.887 594.865 454.587 595.172 455.385C595.478 456.182 595.632 457.03 595.632 457.93L593.638 457.93C593.638 457.092 593.49 456.366 593.194 455.753C592.897 455.139 592.493 454.638 591.982 454.25C591.471 453.861 590.888 453.575 590.234 453.391C589.58 453.207 588.905 453.115 588.21 453.115C587.147 453.115 586.253 453.263 585.527 453.56C584.801 453.856 584.223 454.24 583.794 454.71C583.365 455.18 583.068 455.702 582.905 456.274C582.741 456.846 582.71 457.419 582.813 457.991C582.935 458.707 583.222 459.279 583.671 459.709C584.121 460.138 584.673 460.491 585.327 460.767C585.982 461.043 586.702 461.268 587.489 461.442C588.277 461.615 589.079 461.799 589.897 461.994C590.715 462.188 591.507 462.418 592.274 462.684C593.04 462.949 593.72 463.307 594.313 463.757C594.906 464.207 595.381 464.784 595.739 465.49C596.097 466.195 596.276 467.079 596.276 468.142C596.276 470.187 595.57 471.771 594.16 472.896C592.749 474.02 590.766 474.583 588.21 474.583C587.065 474.583 586.002 474.434 585.021 474.138C584.039 473.842 583.191 473.392 582.475 472.789C581.76 472.185 581.203 471.439 580.804 470.55C580.405 469.661 580.206 468.613 580.206 467.406L582.23 467.406Z"/>
<path d="M617.437 471.056L617.498 471.056L622.313 451.919L624.46 451.919L618.663 474L616.363 474L611.242 454.495L611.18 454.495L606.059 474L603.759 474L598.055 451.919L600.14 451.919L604.893 471.056L604.955 471.056L610.076 451.919L612.407 451.919L617.437 471.056Z"/>
<path d="M626.514 462.99C626.514 461.375 626.734 459.862 627.174 458.451C627.613 457.041 628.262 455.809 629.121 454.756C629.98 453.703 631.043 452.87 632.31 452.257C633.578 451.643 635.04 451.336 636.696 451.336C638.413 451.336 639.921 451.638 641.219 452.241C642.518 452.844 643.601 453.672 644.47 454.725C645.339 455.778 645.993 457.015 646.433 458.436C646.873 459.857 647.092 461.375 647.092 462.99C647.092 464.585 646.873 466.083 646.433 467.483C645.993 468.884 645.344 470.11 644.486 471.163C643.627 472.216 642.554 473.049 641.265 473.663C639.977 474.276 638.485 474.583 636.788 474.583C635.091 474.583 633.599 474.276 632.31 473.663C631.022 473.049 629.949 472.216 629.09 471.163C628.232 470.11 627.588 468.884 627.158 467.483C626.729 466.083 626.514 464.585 626.514 462.99ZM636.819 472.804C638.25 472.804 639.482 472.533 640.514 471.991C641.547 471.449 642.395 470.729 643.06 469.829C643.724 468.93 644.215 467.887 644.532 466.701C644.848 465.515 645.007 464.278 645.007 462.99C645.007 461.457 644.818 460.082 644.44 458.865C644.061 457.649 643.514 456.611 642.799 455.753C642.083 454.894 641.214 454.24 640.192 453.79C639.17 453.34 638.025 453.115 636.757 453.115C635.347 453.115 634.125 453.391 633.093 453.943C632.06 454.495 631.212 455.226 630.547 456.136C629.883 457.046 629.392 458.094 629.075 459.279C628.758 460.465 628.6 461.702 628.6 462.99C628.6 464.299 628.758 465.546 629.075 466.732C629.392 467.918 629.883 468.96 630.547 469.86C631.212 470.759 632.06 471.475 633.093 472.007C634.125 472.538 635.367 472.804 636.819 472.804Z"/>
<path d="M659.789 462.193C660.566 462.193 661.286 462.111 661.951 461.948C662.615 461.784 663.193 461.523 663.684 461.166C664.174 460.808 664.563 460.353 664.849 459.801C665.135 459.249 665.278 458.584 665.278 457.807C665.278 456.99 665.13 456.315 664.834 455.783C664.537 455.252 664.139 454.833 663.638 454.526C663.137 454.219 662.564 454.005 661.92 453.882C661.276 453.759 660.607 453.698 659.911 453.698L653.287 453.698L653.287 462.193L659.789 462.193ZM653.287 463.972L653.287 474L651.202 474L651.202 451.919L659.85 451.919C662.283 451.919 664.144 452.374 665.432 453.284C666.72 454.194 667.364 455.671 667.364 457.715C667.364 459.106 667.083 460.21 666.52 461.028C665.958 461.845 665.043 462.54 663.776 463.113C664.43 463.338 664.941 463.665 665.309 464.094C665.677 464.524 665.953 465.014 666.137 465.566C666.321 466.118 666.439 466.701 666.49 467.314C666.541 467.928 666.577 468.521 666.597 469.093C666.618 469.931 666.653 470.627 666.704 471.179C666.756 471.731 666.817 472.18 666.888 472.528C666.96 472.876 667.047 473.146 667.149 473.341C667.251 473.535 667.374 473.683 667.517 473.785L667.517 474L665.217 474C664.992 473.632 664.834 473.121 664.742 472.467C664.65 471.812 664.578 471.127 664.527 470.412C664.476 469.696 664.435 469.001 664.404 468.326C664.374 467.652 664.317 467.1 664.236 466.67C664.113 466.077 663.914 465.602 663.638 465.244C663.362 464.887 663.029 464.616 662.641 464.432C662.252 464.248 661.818 464.125 661.338 464.064C660.857 464.002 660.361 463.972 659.85 463.972L653.287 463.972Z"/>
<path d="M671.688 474L671.688 451.919L679.232 451.919C679.846 451.919 680.449 451.935 681.042 451.965C681.635 451.996 682.217 452.067 682.79 452.18C683.362 452.292 683.919 452.461 684.461 452.686C685.003 452.911 685.529 453.207 686.04 453.575C686.776 454.107 687.38 454.756 687.85 455.523C688.32 456.289 688.693 457.097 688.969 457.945C689.245 458.794 689.439 459.653 689.552 460.521C689.664 461.39 689.721 462.193 689.721 462.929C689.721 463.665 689.675 464.411 689.583 465.168C689.491 465.924 689.342 466.665 689.138 467.391C688.933 468.117 688.663 468.812 688.325 469.476C687.988 470.141 687.564 470.749 687.053 471.301C686.541 471.874 685.984 472.334 685.381 472.681C684.778 473.029 684.144 473.3 683.48 473.494C682.815 473.688 682.125 473.821 681.41 473.893C680.694 473.964 679.968 474 679.232 474L671.688 474ZM673.773 472.221L678.772 472.221C679.713 472.221 680.597 472.165 681.425 472.053C682.253 471.94 683.096 471.659 683.955 471.209C684.691 470.841 685.294 470.34 685.764 469.707C686.235 469.073 686.608 468.383 686.884 467.636C687.16 466.89 687.354 466.108 687.467 465.29C687.579 464.473 687.635 463.685 687.635 462.929C687.635 462.132 687.584 461.319 687.482 460.491C687.38 459.663 687.185 458.876 686.899 458.129C686.613 457.383 686.224 456.698 685.734 456.075C685.243 455.451 684.609 454.935 683.832 454.526C683.178 454.178 682.401 453.953 681.502 453.851C680.602 453.749 679.692 453.698 678.772 453.698L673.773 453.698L673.773 472.221Z"/>
<path d="M174.687 535.99C174.687 536.747 174.544 537.457 174.258 538.122C173.972 538.786 173.573 539.369 173.062 539.87C172.551 540.371 171.958 540.764 171.283 541.05C170.608 541.337 169.893 541.48 169.136 541.48C168.38 541.48 167.669 541.337 167.005 541.05C166.34 540.764 165.758 540.371 165.257 539.87C164.756 539.369 164.362 538.786 164.076 538.122C163.79 537.457 163.647 536.747 163.647 535.99C163.647 535.234 163.79 534.518 164.076 533.844C164.362 533.169 164.756 532.576 165.257 532.065C165.758 531.554 166.34 531.155 167.005 530.869C167.669 530.583 168.38 530.439 169.136 530.439C169.893 530.439 170.608 530.583 171.283 530.869C171.958 531.155 172.551 531.554 173.062 532.065C173.573 532.576 173.972 533.169 174.258 533.844C174.544 534.518 174.687 535.234 174.687 535.99Z"/>
<path d="M187.162 547L187.162 524.919L190.352 524.919L197.59 544.393L197.651 544.393L204.766 524.919L207.925 524.919L207.925 547L205.839 547L205.839 527.311L205.778 527.311L198.54 547L196.578 547L189.309 527.311L189.248 527.311L189.248 547L187.162 547Z"/>
<path d="M210.777 547L219.456 524.919L221.817 524.919L230.281 547L228.135 547L225.589 540.069L215.53 540.069L212.923 547L210.777 547ZM216.236 538.29L224.884 538.29L220.56 526.698L216.236 538.29Z"/>
<path d="M233.379 547L233.379 524.919L235.464 524.919L235.464 536.358L246.781 524.919L249.142 524.919L240.432 533.721L250.676 547L248.13 547L238.93 535.009L235.464 538.474L235.464 547L233.379 547Z"/>
<path d="M253.712 547L253.712 524.919L268.402 524.919L268.402 526.698L255.797 526.698L255.797 534.672L267.175 534.672L267.175 536.45L255.797 536.45L255.797 545.221L268.708 545.221L268.708 547L253.712 547Z"/>
<path d="M287.164 535.561L293.819 524.919L296.241 524.919L288.237 537.37L288.237 547L286.152 547L286.152 537.524L278.27 524.919L280.662 524.919L287.164 535.561Z"/>
<path d="M298.265 535.99C298.265 534.375 298.485 532.862 298.925 531.451C299.364 530.041 300.014 528.809 300.872 527.756C301.731 526.703 302.794 525.87 304.062 525.257C305.329 524.643 306.791 524.336 308.447 524.336C310.165 524.336 311.672 524.638 312.971 525.241C314.269 525.844 315.353 526.672 316.221 527.725C317.09 528.778 317.745 530.015 318.184 531.436C318.624 532.857 318.844 534.375 318.844 535.99C318.844 537.585 318.624 539.083 318.184 540.483C317.745 541.884 317.096 543.11 316.237 544.163C315.378 545.216 314.305 546.049 313.017 546.663C311.729 547.276 310.236 547.583 308.539 547.583C306.842 547.583 305.35 547.276 304.062 546.663C302.774 546.049 301.7 545.216 300.842 544.163C299.983 543.11 299.339 541.884 298.909 540.483C298.48 539.083 298.265 537.585 298.265 535.99ZM308.57 545.804C310.001 545.804 311.233 545.533 312.265 544.991C313.298 544.449 314.146 543.729 314.811 542.829C315.475 541.93 315.966 540.887 316.283 539.701C316.6 538.515 316.758 537.278 316.758 535.99C316.758 534.457 316.569 533.082 316.191 531.865C315.813 530.649 315.266 529.611 314.55 528.753C313.834 527.894 312.966 527.24 311.943 526.79C310.921 526.34 309.776 526.115 308.509 526.115C307.098 526.115 305.876 526.391 304.844 526.943C303.811 527.495 302.963 528.226 302.298 529.136C301.634 530.046 301.143 531.094 300.826 532.279C300.509 533.465 300.351 534.702 300.351 535.99C300.351 537.299 300.509 538.546 300.826 539.732C301.143 540.918 301.634 541.96 302.298 542.86C302.963 543.759 303.811 544.475 304.844 545.007C305.876 545.538 307.118 545.804 308.57 545.804Z"/>
<path d="M323.014 524.919L325.1 524.919L325.1 538.076C325.1 540.815 325.611 542.788 326.633 543.995C327.655 545.201 329.301 545.804 331.571 545.804C332.757 545.804 333.763 545.646 334.591 545.329C335.42 545.012 336.089 544.531 336.6 543.887C337.111 543.243 337.479 542.441 337.704 541.48C337.929 540.519 338.042 539.384 338.042 538.076L338.042 524.919L340.127 524.919L340.127 538.689C340.127 541.572 339.417 543.775 337.996 545.298C336.575 546.821 334.433 547.583 331.571 547.583C328.688 547.583 326.541 546.806 325.13 545.252C323.72 543.698 323.014 541.51 323.014 538.689L323.014 524.919Z"/>
<path d="M353.682 535.193C354.459 535.193 355.18 535.111 355.844 534.948C356.509 534.784 357.086 534.523 357.577 534.166C358.068 533.808 358.456 533.353 358.742 532.801C359.029 532.249 359.172 531.584 359.172 530.807C359.172 529.99 359.024 529.315 358.727 528.783C358.431 528.252 358.032 527.833 357.531 527.526C357.03 527.219 356.458 527.005 355.814 526.882C355.17 526.759 354.5 526.698 353.805 526.698L347.181 526.698L347.181 535.193L353.682 535.193ZM347.181 536.972L347.181 547L345.095 547L345.095 524.919L353.744 524.919C356.177 524.919 358.037 525.374 359.325 526.284C360.613 527.194 361.257 528.671 361.257 530.715C361.257 532.106 360.976 533.21 360.414 534.028C359.852 534.845 358.937 535.54 357.669 536.113C358.323 536.338 358.834 536.665 359.202 537.094C359.57 537.524 359.846 538.014 360.03 538.566C360.214 539.118 360.332 539.701 360.383 540.314C360.434 540.928 360.47 541.521 360.49 542.093C360.511 542.931 360.547 543.627 360.598 544.179C360.649 544.731 360.71 545.18 360.782 545.528C360.853 545.876 360.94 546.146 361.042 546.341C361.145 546.535 361.267 546.683 361.41 546.785L361.41 547L359.11 547C358.886 546.632 358.727 546.121 358.635 545.467C358.543 544.812 358.471 544.127 358.42 543.412C358.369 542.696 358.328 542.001 358.298 541.326C358.267 540.652 358.211 540.1 358.129 539.67C358.006 539.077 357.807 538.602 357.531 538.244C357.255 537.887 356.923 537.616 356.534 537.432C356.146 537.248 355.711 537.125 355.231 537.064C354.75 537.002 354.255 536.972 353.744 536.972L347.181 536.972Z"/>
<path d="M373.518 547L373.518 524.919L375.603 524.919L375.603 545.221L387.441 545.221L387.441 547L373.518 547Z"/>
<path d="M391.305 547L391.305 524.919L393.391 524.919L393.391 547L391.305 547Z"/>
<path d="M399.953 540.406C400.035 541.388 400.255 542.221 400.613 542.906C400.971 543.591 401.431 544.148 401.993 544.577C402.555 545.007 403.204 545.318 403.94 545.513C404.676 545.707 405.463 545.804 406.302 545.804C407.283 545.804 408.132 545.681 408.847 545.436C409.563 545.191 410.145 544.858 410.595 544.439C411.045 544.02 411.377 543.535 411.592 542.983C411.807 542.43 411.914 541.848 411.914 541.234C411.914 540.376 411.72 539.681 411.331 539.149C410.943 538.617 410.437 538.183 409.813 537.846C409.19 537.508 408.474 537.237 407.666 537.033C406.859 536.829 406.031 536.629 405.182 536.435C404.334 536.241 403.506 536.011 402.698 535.745C401.891 535.479 401.175 535.121 400.551 534.672C399.928 534.222 399.422 533.644 399.033 532.939C398.645 532.233 398.451 531.339 398.451 530.255C398.451 529.499 398.609 528.763 398.926 528.047C399.243 527.332 399.713 526.698 400.337 526.146C400.96 525.594 401.742 525.154 402.683 524.827C403.623 524.5 404.707 524.336 405.934 524.336C407.181 524.336 408.27 524.51 409.2 524.858C410.13 525.205 410.902 525.681 411.515 526.284C412.129 526.887 412.589 527.587 412.895 528.385C413.202 529.182 413.355 530.03 413.355 530.93L411.362 530.93C411.362 530.092 411.214 529.366 410.917 528.753C410.621 528.139 410.217 527.638 409.706 527.25C409.195 526.861 408.612 526.575 407.958 526.391C407.303 526.207 406.629 526.115 405.934 526.115C404.871 526.115 403.976 526.263 403.25 526.56C402.524 526.856 401.947 527.24 401.518 527.71C401.088 528.18 400.792 528.702 400.628 529.274C400.465 529.846 400.434 530.419 400.536 530.991C400.659 531.707 400.945 532.279 401.395 532.709C401.845 533.138 402.397 533.491 403.051 533.767C403.705 534.043 404.426 534.268 405.213 534.442C406 534.615 406.803 534.799 407.62 534.994C408.438 535.188 409.23 535.418 409.997 535.684C410.764 535.949 411.444 536.307 412.037 536.757C412.629 537.207 413.105 537.784 413.463 538.49C413.82 539.195 413.999 540.079 413.999 541.142C413.999 543.187 413.294 544.771 411.883 545.896C410.473 547.02 408.489 547.583 405.934 547.583C404.789 547.583 403.726 547.434 402.744 547.138C401.763 546.842 400.914 546.392 400.199 545.789C399.483 545.185 398.926 544.439 398.527 543.55C398.129 542.661 397.929 541.613 397.929 540.406L399.953 540.406Z"/>
<path d="M415.839 524.919L431.909 524.919L431.909 526.698L424.917 526.698L424.917 547L422.832 547L422.832 526.698L415.839 526.698L415.839 524.919Z"/>
<path d="M442.729 547L442.729 524.919L450.794 524.919C452.225 524.919 453.406 525.083 454.336 525.41C455.267 525.737 456.003 526.187 456.544 526.759C457.086 527.332 457.464 527.991 457.679 528.737C457.894 529.484 458.001 530.266 458.001 531.083C458.001 532.31 457.751 533.322 457.25 534.12C456.749 534.917 456.1 535.546 455.302 536.006C454.505 536.466 453.6 536.788 452.588 536.972C451.576 537.156 450.559 537.248 449.537 537.248L444.814 537.248L444.814 547L442.729 547ZM449.598 535.469C450.58 535.469 451.459 535.408 452.236 535.285C453.013 535.162 453.672 534.932 454.214 534.595C454.755 534.258 455.175 533.798 455.471 533.215C455.767 532.632 455.916 531.871 455.916 530.93C455.916 529.54 455.461 528.487 454.551 527.771C453.641 527.056 452.195 526.698 450.212 526.698L444.814 526.698L444.814 535.469L449.598 535.469Z"/>
<path d="M461.589 524.919L463.675 524.919L463.675 538.076C463.675 540.815 464.186 542.788 465.208 543.995C466.23 545.201 467.876 545.804 470.146 545.804C471.331 545.804 472.338 545.646 473.166 545.329C473.994 545.012 474.664 544.531 475.175 543.887C475.686 543.243 476.054 542.441 476.279 541.48C476.504 540.519 476.616 539.384 476.616 538.076L476.616 524.919L478.702 524.919L478.702 538.689C478.702 541.572 477.991 543.775 476.57 545.298C475.15 546.821 473.008 547.583 470.146 547.583C467.263 547.583 465.116 546.806 463.705 545.252C462.295 543.698 461.589 541.51 461.589 538.689L461.589 524.919Z"/>
<path d="M485.786 545.221L491.092 545.221C492.237 545.221 493.233 545.17 494.082 545.068C494.93 544.966 495.631 544.756 496.183 544.439C496.735 544.122 497.149 543.673 497.425 543.09C497.701 542.507 497.839 541.735 497.839 540.774C497.839 539.854 497.685 539.113 497.379 538.551C497.072 537.989 496.632 537.554 496.06 537.248C495.487 536.941 494.803 536.731 494.005 536.619C493.208 536.506 492.318 536.45 491.337 536.45L485.786 536.45L485.786 545.221ZM485.786 534.672L491.061 534.672C492.145 534.672 493.054 534.58 493.79 534.396C494.526 534.212 495.119 533.941 495.569 533.583C496.019 533.225 496.341 532.785 496.535 532.264C496.729 531.743 496.827 531.145 496.827 530.47C496.827 529.775 496.714 529.187 496.489 528.707C496.264 528.226 495.907 527.838 495.416 527.541C494.925 527.245 494.286 527.03 493.499 526.897C492.712 526.764 491.746 526.698 490.601 526.698L485.786 526.698L485.786 534.672ZM483.701 547L483.701 524.919L491.674 524.919C492.962 524.919 494.066 525.052 494.987 525.318C495.907 525.584 496.658 525.962 497.241 526.453C497.823 526.943 498.248 527.531 498.513 528.216C498.779 528.901 498.912 529.652 498.912 530.47C498.912 531.247 498.81 531.917 498.605 532.479C498.401 533.041 498.135 533.511 497.808 533.89C497.481 534.268 497.108 534.564 496.689 534.779C496.269 534.994 495.835 535.142 495.385 535.224L495.385 535.285C496.919 535.51 498.058 536.113 498.805 537.094C499.551 538.076 499.924 539.302 499.924 540.774C499.924 541.919 499.745 542.891 499.387 543.688C499.03 544.485 498.534 545.129 497.9 545.62C497.266 546.111 496.505 546.463 495.615 546.678C494.726 546.893 493.76 547 492.717 547L483.701 547Z"/>
<path d="M504.156 547L504.156 524.919L506.242 524.919L506.242 545.221L518.079 545.221L518.079 547L504.156 547Z"/>
<path d="M521.944 547L521.944 524.919L524.029 524.919L524.029 547L521.944 547Z"/>
<path d="M545.404 531.329C544.975 529.448 544.178 528.109 543.012 527.311C541.847 526.514 540.324 526.115 538.443 526.115C537.114 526.115 535.969 526.381 535.008 526.913C534.047 527.444 533.255 528.16 532.631 529.059C532.008 529.959 531.548 530.997 531.251 532.172C530.955 533.348 530.807 534.59 530.807 535.898C530.807 537.125 530.934 538.331 531.19 539.517C531.445 540.703 531.87 541.761 532.463 542.691C533.055 543.621 533.853 544.373 534.855 544.945C535.856 545.518 537.114 545.804 538.627 545.804C539.567 545.804 540.426 545.651 541.203 545.344C541.98 545.037 542.66 544.613 543.242 544.071C543.825 543.529 544.316 542.891 544.714 542.154C545.113 541.418 545.415 540.611 545.619 539.732L547.796 539.732C547.551 540.795 547.193 541.802 546.723 542.753C546.253 543.703 545.634 544.536 544.868 545.252C544.101 545.968 543.171 546.535 542.077 546.954C540.983 547.373 539.7 547.583 538.228 547.583C536.531 547.583 535.08 547.271 533.873 546.647C532.667 546.024 531.681 545.18 530.914 544.117C530.147 543.054 529.59 541.822 529.242 540.422C528.895 539.021 528.721 537.534 528.721 535.96C528.721 533.854 528.982 532.065 529.503 530.593C530.024 529.121 530.745 527.92 531.665 526.989C532.585 526.059 533.669 525.384 534.916 524.965C536.163 524.546 537.523 524.336 538.995 524.336C540.119 524.336 541.167 524.485 542.138 524.781C543.109 525.078 543.968 525.522 544.714 526.115C545.461 526.708 546.074 527.439 546.554 528.308C547.035 529.177 547.367 530.184 547.551 531.329L545.404 531.329Z"/>
<path d="M558.953 535.99C558.953 534.375 559.173 532.862 559.612 531.451C560.052 530.041 560.701 528.809 561.56 527.756C562.419 526.703 563.482 525.87 564.749 525.257C566.017 524.643 567.479 524.336 569.135 524.336C570.852 524.336 572.36 524.638 573.658 525.241C574.957 525.844 576.04 526.672 576.909 527.725C577.778 528.778 578.432 530.015 578.872 531.436C579.311 532.857 579.531 534.375 579.531 535.99C579.531 537.585 579.311 539.083 578.872 540.483C578.432 541.884 577.783 543.11 576.924 544.163C576.066 545.216 574.992 546.049 573.704 546.663C572.416 547.276 570.924 547.583 569.227 547.583C567.53 547.583 566.037 547.276 564.749 546.663C563.461 546.049 562.388 545.216 561.529 544.163C560.67 543.11 560.026 541.884 559.597 540.483C559.168 539.083 558.953 537.585 558.953 535.99ZM569.257 545.804C570.689 545.804 571.92 545.533 572.953 544.991C573.985 544.449 574.834 543.729 575.498 542.829C576.163 541.93 576.654 540.887 576.97 539.701C577.287 538.515 577.446 537.278 577.446 535.99C577.446 534.457 577.257 533.082 576.878 531.865C576.5 530.649 575.953 529.611 575.238 528.753C574.522 527.894 573.653 527.24 572.631 526.79C571.609 526.34 570.464 526.115 569.196 526.115C567.785 526.115 566.564 526.391 565.531 526.943C564.499 527.495 563.65 528.226 562.986 529.136C562.321 530.046 561.831 531.094 561.514 532.279C561.197 533.465 561.038 534.702 561.038 535.99C561.038 537.299 561.197 538.546 561.514 539.732C561.831 540.918 562.321 541.96 562.986 542.86C563.65 543.759 564.499 544.475 565.531 545.007C566.564 545.538 567.806 545.804 569.257 545.804Z"/>
<path d="M592.228 535.193C593.005 535.193 593.725 535.111 594.39 534.948C595.054 534.784 595.632 534.523 596.122 534.166C596.613 533.808 597.002 533.353 597.288 532.801C597.574 532.249 597.717 531.584 597.717 530.807C597.717 529.99 597.569 529.315 597.273 528.783C596.976 528.252 596.577 527.833 596.076 527.526C595.576 527.219 595.003 527.005 594.359 526.882C593.715 526.759 593.045 526.698 592.35 526.698L585.726 526.698L585.726 535.193L592.228 535.193ZM585.726 536.972L585.726 547L583.641 547L583.641 524.919L592.289 524.919C594.722 524.919 596.582 525.374 597.871 526.284C599.159 527.194 599.803 528.671 599.803 530.715C599.803 532.106 599.521 533.21 598.959 534.028C598.397 534.845 597.482 535.54 596.214 536.113C596.869 536.338 597.38 536.665 597.748 537.094C598.116 537.524 598.392 538.014 598.576 538.566C598.76 539.118 598.877 539.701 598.929 540.314C598.98 540.928 599.015 541.521 599.036 542.093C599.056 542.931 599.092 543.627 599.143 544.179C599.194 544.731 599.256 545.18 599.327 545.528C599.399 545.876 599.486 546.146 599.588 546.341C599.69 546.535 599.813 546.683 599.956 546.785L599.956 547L597.656 547C597.431 546.632 597.273 546.121 597.181 545.467C597.088 544.812 597.017 544.127 596.966 543.412C596.915 542.696 596.874 542.001 596.843 541.326C596.812 540.652 596.756 540.1 596.674 539.67C596.552 539.077 596.352 538.602 596.076 538.244C595.8 537.887 595.468 537.616 595.08 537.432C594.691 537.248 594.257 537.125 593.776 537.064C593.296 537.002 592.8 536.972 592.289 536.972L585.726 536.972Z"/>
<path d="M611.971 547L611.971 524.919L620.037 524.919C621.468 524.919 622.649 525.083 623.579 525.41C624.509 525.737 625.245 526.187 625.787 526.759C626.329 527.332 626.707 527.991 626.922 528.737C627.136 529.484 627.244 530.266 627.244 531.083C627.244 532.31 626.993 533.322 626.492 534.12C625.992 534.917 625.342 535.546 624.545 536.006C623.748 536.466 622.843 536.788 621.831 536.972C620.819 537.156 619.802 537.248 618.78 537.248L614.057 537.248L614.057 547L611.971 547ZM618.841 535.469C619.822 535.469 620.701 535.408 621.478 535.285C622.255 535.162 622.915 534.932 623.456 534.595C623.998 534.258 624.417 533.798 624.714 533.215C625.01 532.632 625.158 531.871 625.158 530.93C625.158 529.54 624.703 528.487 623.794 527.771C622.884 527.056 621.437 526.698 619.454 526.698L614.057 526.698L614.057 535.469L618.841 535.469Z"/>
<path d="M639.358 535.193C640.135 535.193 640.855 535.111 641.52 534.948C642.184 534.784 642.762 534.523 643.252 534.166C643.743 533.808 644.132 533.353 644.418 532.801C644.704 532.249 644.847 531.584 644.847 530.807C644.847 529.99 644.699 529.315 644.402 528.783C644.106 528.252 643.707 527.833 643.206 527.526C642.705 527.219 642.133 527.005 641.489 526.882C640.845 526.759 640.175 526.698 639.48 526.698L632.856 526.698L632.856 535.193L639.358 535.193ZM632.856 536.972L632.856 547L630.771 547L630.771 524.919L639.419 524.919C641.852 524.919 643.712 525.374 645 526.284C646.289 527.194 646.933 528.671 646.933 530.715C646.933 532.106 646.651 533.21 646.089 534.028C645.527 534.845 644.612 535.54 643.344 536.113C643.999 536.338 644.51 536.665 644.878 537.094C645.246 537.524 645.522 538.014 645.706 538.566C645.89 539.118 646.007 539.701 646.059 540.314C646.11 540.928 646.145 541.521 646.166 542.093C646.186 542.931 646.222 543.627 646.273 544.179C646.324 544.731 646.386 545.18 646.457 545.528C646.529 545.876 646.616 546.146 646.718 546.341C646.82 546.535 646.943 546.683 647.086 546.785L647.086 547L644.786 547C644.561 546.632 644.402 546.121 644.31 545.467C644.218 544.812 644.147 544.127 644.096 543.412C644.045 542.696 644.004 542.001 643.973 541.326C643.942 540.652 643.886 540.1 643.804 539.67C643.682 539.077 643.482 538.602 643.206 538.244C642.93 537.887 642.598 537.616 642.21 537.432C641.821 537.248 641.387 537.125 640.906 537.064C640.426 537.002 639.93 536.972 639.419 536.972L632.856 536.972Z"/>
<path d="M651.993 547L651.993 524.919L654.078 524.919L654.078 547L651.993 547Z"/>
<path d="M657.85 524.919L660.028 524.919L666.683 544.547L673.307 524.919L675.484 524.919L667.817 547L665.517 547L657.85 524.919Z"/>
<path d="M674.227 547L682.906 524.919L685.267 524.919L693.732 547L691.585 547L689.039 540.069L678.98 540.069L676.374 547L674.227 547ZM679.686 538.29L688.334 538.29L684.01 526.698L679.686 538.29Z"/>
<path d="M691.892 524.919L707.961 524.919L707.961 526.698L700.969 526.698L700.969 547L698.884 547L698.884 526.698L691.892 526.698L691.892 524.919Z"/>
<path d="M710.936 547L710.936 524.919L725.626 524.919L725.626 526.698L713.022 526.698L713.022 534.672L724.399 534.672L724.399 536.45L713.022 536.45L713.022 545.221L725.933 545.221L725.933 547L710.936 547Z"/>
<path d="M174.687 608.99C174.687 609.747 174.544 610.457 174.258 611.122C173.972 611.786 173.573 612.369 173.062 612.87C172.551 613.371 171.958 613.764 171.283 614.05C170.608 614.337 169.893 614.48 169.136 614.48C168.38 614.48 167.669 614.337 167.005 614.05C166.34 613.764 165.758 613.371 165.257 612.87C164.756 612.369 164.362 611.786 164.076 611.122C163.79 610.457 163.647 609.747 163.647 608.99C163.647 608.234 163.79 607.518 164.076 606.844C164.362 606.169 164.756 605.576 165.257 605.065C165.758 604.554 166.34 604.155 167.005 603.869C167.669 603.583 168.38 603.439 169.136 603.439C169.893 603.439 170.608 603.583 171.283 603.869C171.958 604.155 172.551 604.554 173.062 605.065C173.573 605.576 173.972 606.169 174.258 606.844C174.544 607.518 174.687 608.234 174.687 608.99Z"/>
<path d="M188.113 613.406C188.195 614.388 188.415 615.221 188.773 615.906C189.13 616.591 189.59 617.148 190.153 617.577C190.715 618.007 191.364 618.318 192.1 618.513C192.836 618.707 193.623 618.804 194.461 618.804C195.443 618.804 196.291 618.681 197.007 618.436C197.722 618.191 198.305 617.858 198.755 617.439C199.205 617.02 199.537 616.535 199.752 615.983C199.966 615.43 200.074 614.848 200.074 614.234C200.074 613.376 199.879 612.681 199.491 612.149C199.102 611.617 198.596 611.183 197.973 610.846C197.349 610.508 196.634 610.237 195.826 610.033C195.019 609.829 194.191 609.629 193.342 609.435C192.494 609.241 191.666 609.011 190.858 608.745C190.05 608.479 189.335 608.121 188.711 607.672C188.088 607.222 187.582 606.644 187.193 605.939C186.805 605.233 186.61 604.339 186.61 603.255C186.61 602.499 186.769 601.763 187.086 601.047C187.403 600.332 187.873 599.698 188.497 599.146C189.12 598.594 189.902 598.154 190.843 597.827C191.783 597.5 192.867 597.336 194.093 597.336C195.341 597.336 196.429 597.51 197.36 597.858C198.29 598.205 199.062 598.681 199.675 599.284C200.288 599.887 200.748 600.587 201.055 601.385C201.362 602.182 201.515 603.03 201.515 603.93L199.522 603.93C199.522 603.092 199.373 602.366 199.077 601.753C198.78 601.139 198.377 600.638 197.866 600.25C197.354 599.861 196.772 599.575 196.117 599.391C195.463 599.207 194.789 599.115 194.093 599.115C193.03 599.115 192.136 599.263 191.41 599.56C190.684 599.856 190.107 600.24 189.677 600.71C189.248 601.18 188.951 601.702 188.788 602.274C188.624 602.846 188.594 603.419 188.696 603.991C188.819 604.707 189.105 605.279 189.555 605.709C190.004 606.138 190.556 606.491 191.211 606.767C191.865 607.043 192.586 607.268 193.373 607.442C194.16 607.615 194.962 607.799 195.78 607.994C196.598 608.188 197.39 608.418 198.157 608.684C198.924 608.949 199.603 609.307 200.196 609.757C200.789 610.207 201.265 610.784 201.622 611.49C201.98 612.195 202.159 613.079 202.159 614.142C202.159 616.187 201.454 617.771 200.043 618.896C198.632 620.02 196.649 620.583 194.093 620.583C192.948 620.583 191.885 620.434 190.904 620.138C189.923 619.842 189.074 619.392 188.359 618.789C187.643 618.185 187.086 617.439 186.687 616.55C186.288 615.661 186.089 614.613 186.089 613.406L188.113 613.406Z"/>
<path d="M205.962 620L205.962 597.919L208.047 597.919L208.047 607.396L221.112 607.396L221.112 597.919L223.197 597.919L223.197 620L221.112 620L221.112 609.174L208.047 609.174L208.047 620L205.962 620Z"/>
<path d="M226.111 620L234.79 597.919L237.151 597.919L245.615 620L243.469 620L240.923 613.069L230.864 613.069L228.257 620L226.111 620ZM231.569 611.29L240.218 611.29L235.894 599.698L231.569 611.29Z"/>
<path d="M257.146 608.193C257.923 608.193 258.644 608.111 259.308 607.948C259.973 607.784 260.551 607.523 261.041 607.166C261.532 606.808 261.92 606.353 262.207 605.801C262.493 605.249 262.636 604.584 262.636 603.807C262.636 602.99 262.488 602.315 262.191 601.783C261.895 601.252 261.496 600.833 260.995 600.526C260.494 600.219 259.922 600.005 259.278 599.882C258.634 599.759 257.964 599.698 257.269 599.698L250.645 599.698L250.645 608.193L257.146 608.193ZM250.645 609.972L250.645 620L248.559 620L248.559 597.919L257.208 597.919C259.641 597.919 261.501 598.374 262.789 599.284C264.077 600.194 264.721 601.671 264.721 603.715C264.721 605.106 264.44 606.21 263.878 607.028C263.316 607.845 262.401 608.54 261.133 609.113C261.787 609.338 262.299 609.665 262.667 610.094C263.035 610.524 263.311 611.014 263.495 611.566C263.679 612.118 263.796 612.701 263.847 613.314C263.898 613.928 263.934 614.521 263.955 615.093C263.975 615.931 264.011 616.627 264.062 617.179C264.113 617.731 264.174 618.18 264.246 618.528C264.318 618.876 264.404 619.146 264.507 619.341C264.609 619.535 264.732 619.683 264.875 619.785L264.875 620L262.575 620C262.35 619.632 262.191 619.121 262.099 618.467C262.007 617.812 261.936 617.127 261.885 616.412C261.833 615.696 261.793 615.001 261.762 614.326C261.731 613.652 261.675 613.1 261.593 612.67C261.471 612.077 261.271 611.602 260.995 611.244C260.719 610.887 260.387 610.616 259.999 610.432C259.61 610.248 259.176 610.125 258.695 610.064C258.215 610.002 257.719 609.972 257.208 609.972L250.645 609.972Z"/>
<path d="M269.046 620L269.046 597.919L283.735 597.919L283.735 599.698L271.131 599.698L271.131 607.672L282.509 607.672L282.509 609.45L271.131 609.45L271.131 618.221L284.042 618.221L284.042 620L269.046 620Z"/>
<path d="M293.696 620L302.375 597.919L304.736 597.919L313.201 620L311.054 620L308.509 613.069L298.449 613.069L295.843 620L293.696 620ZM299.155 611.29L307.803 611.29L303.479 599.698L299.155 611.29Z"/>
<path d="M324.112 620L324.112 597.919L326.197 597.919L326.197 618.221L338.035 618.221L338.035 620L324.112 620Z"/>
<path d="M341.899 620L341.899 597.919L343.985 597.919L343.985 620L341.899 620Z"/>
<path d="M350.548 613.406C350.629 614.388 350.849 615.221 351.207 615.906C351.565 616.591 352.025 617.148 352.587 617.577C353.149 618.007 353.798 618.318 354.534 618.513C355.27 618.707 356.058 618.804 356.896 618.804C357.877 618.804 358.726 618.681 359.441 618.436C360.157 618.191 360.74 617.858 361.189 617.439C361.639 617.02 361.971 616.535 362.186 615.983C362.401 615.43 362.508 614.848 362.508 614.234C362.508 613.376 362.314 612.681 361.925 612.149C361.537 611.617 361.031 611.183 360.407 610.846C359.784 610.508 359.068 610.237 358.261 610.033C357.453 609.829 356.625 609.629 355.776 609.435C354.928 609.241 354.1 609.011 353.292 608.745C352.485 608.479 351.769 608.121 351.146 607.672C350.522 607.222 350.016 606.644 349.628 605.939C349.239 605.233 349.045 604.339 349.045 603.255C349.045 602.499 349.203 601.763 349.52 601.047C349.837 600.332 350.307 599.698 350.931 599.146C351.555 598.594 352.337 598.154 353.277 597.827C354.218 597.5 355.301 597.336 356.528 597.336C357.775 597.336 358.864 597.51 359.794 597.858C360.724 598.205 361.496 598.681 362.109 599.284C362.723 599.887 363.183 600.587 363.489 601.385C363.796 602.182 363.949 603.03 363.949 603.93L361.956 603.93C361.956 603.092 361.808 602.366 361.511 601.753C361.215 601.139 360.811 600.638 360.3 600.25C359.789 599.861 359.206 599.575 358.552 599.391C357.898 599.207 357.223 599.115 356.528 599.115C355.465 599.115 354.57 599.263 353.844 599.56C353.119 599.856 352.541 600.24 352.112 600.71C351.682 601.18 351.386 601.702 351.222 602.274C351.059 602.846 351.028 603.419 351.13 603.991C351.253 604.707 351.539 605.279 351.989 605.709C352.439 606.138 352.991 606.491 353.645 606.767C354.299 607.043 355.02 607.268 355.807 607.442C356.594 607.615 357.397 607.799 358.215 607.994C359.032 608.188 359.825 608.418 360.591 608.684C361.358 608.949 362.038 609.307 362.631 609.757C363.224 610.207 363.699 610.784 364.057 611.49C364.415 612.195 364.593 613.079 364.593 614.142C364.593 616.187 363.888 617.771 362.477 618.896C361.067 620.02 359.083 620.583 356.528 620.583C355.383 620.583 354.32 620.434 353.338 620.138C352.357 619.842 351.509 619.392 350.793 618.789C350.077 618.185 349.52 617.439 349.122 616.55C348.723 615.661 348.524 614.613 348.524 613.406L350.548 613.406Z"/>
<path d="M366.434 597.919L382.503 597.919L382.503 599.698L375.511 599.698L375.511 620L373.426 620L373.426 599.698L366.434 599.698L366.434 597.919Z"/>
<path d="M410.742 617.056L410.803 617.056L415.618 597.919L417.765 597.919L411.969 620L409.669 620L404.547 600.495L404.486 600.495L399.364 620L397.064 620L391.36 597.919L393.445 597.919L398.199 617.056L398.26 617.056L403.382 597.919L405.713 597.919L410.742 617.056Z"/>
<path d="M421.414 620L421.414 597.919L423.5 597.919L423.5 620L421.414 620Z"/>
<path d="M427.211 597.919L443.281 597.919L443.281 599.698L436.288 599.698L436.288 620L434.203 620L434.203 599.698L427.211 599.698L427.211 597.919Z"/>
<path d="M446.225 620L446.225 597.919L448.31 597.919L448.31 607.396L461.375 607.396L461.375 597.919L463.46 597.919L463.46 620L461.375 620L461.375 609.174L448.31 609.174L448.31 620L446.225 620Z"/>
<path d="M477.193 613.406C477.274 614.388 477.494 615.221 477.852 615.906C478.21 616.591 478.67 617.148 479.232 617.577C479.794 618.007 480.443 618.318 481.18 618.513C481.916 618.707 482.703 618.804 483.541 618.804C484.522 618.804 485.371 618.681 486.086 618.436C486.802 618.191 487.385 617.858 487.834 617.439C488.284 617.02 488.616 616.535 488.831 615.983C489.046 615.43 489.153 614.848 489.153 614.234C489.153 613.376 488.959 612.681 488.57 612.149C488.182 611.617 487.676 611.183 487.052 610.846C486.429 610.508 485.713 610.237 484.906 610.033C484.098 609.829 483.27 609.629 482.422 609.435C481.573 609.241 480.745 609.011 479.937 608.745C479.13 608.479 478.414 608.121 477.791 607.672C477.167 607.222 476.661 606.644 476.273 605.939C475.884 605.233 475.69 604.339 475.69 603.255C475.69 602.499 475.848 601.763 476.165 601.047C476.482 600.332 476.952 599.698 477.576 599.146C478.2 598.594 478.982 598.154 479.922 597.827C480.863 597.5 481.946 597.336 483.173 597.336C484.42 597.336 485.509 597.51 486.439 597.858C487.369 598.205 488.141 598.681 488.754 599.284C489.368 599.887 489.828 600.587 490.135 601.385C490.441 602.182 490.595 603.03 490.595 603.93L488.601 603.93C488.601 603.092 488.453 602.366 488.156 601.753C487.86 601.139 487.456 600.638 486.945 600.25C486.434 599.861 485.851 599.575 485.197 599.391C484.543 599.207 483.868 599.115 483.173 599.115C482.11 599.115 481.215 599.263 480.49 599.56C479.764 599.856 479.186 600.24 478.757 600.71C478.327 601.18 478.031 601.702 477.867 602.274C477.704 602.846 477.673 603.419 477.775 603.991C477.898 604.707 478.184 605.279 478.634 605.709C479.084 606.138 479.636 606.491 480.29 606.767C480.944 607.043 481.665 607.268 482.452 607.442C483.239 607.615 484.042 607.799 484.86 607.994C485.677 608.188 486.47 608.418 487.236 608.684C488.003 608.949 488.683 609.307 489.276 609.757C489.869 610.207 490.344 610.784 490.702 611.49C491.06 612.195 491.239 613.079 491.239 614.142C491.239 616.187 490.533 617.771 489.122 618.896C487.712 620.02 485.729 620.583 483.173 620.583C482.028 620.583 480.965 620.434 479.983 620.138C479.002 619.842 478.154 619.392 477.438 618.789C476.722 618.185 476.165 617.439 475.767 616.55C475.368 615.661 475.169 614.613 475.169 613.406L477.193 613.406Z"/>
<path d="M494.98 620L494.98 597.919L503.046 597.919C504.477 597.919 505.658 598.083 506.588 598.41C507.518 598.737 508.254 599.187 508.796 599.759C509.338 600.332 509.716 600.991 509.931 601.737C510.145 602.484 510.253 603.266 510.253 604.083C510.253 605.31 510.002 606.322 509.501 607.12C509 607.917 508.351 608.546 507.554 609.006C506.756 609.466 505.852 609.788 504.84 609.972C503.828 610.156 502.811 610.248 501.788 610.248L497.065 610.248L497.065 620L494.98 620ZM501.85 608.469C502.831 608.469 503.71 608.408 504.487 608.285C505.264 608.162 505.923 607.932 506.465 607.595C507.007 607.258 507.426 606.798 507.723 606.215C508.019 605.632 508.167 604.871 508.167 603.93C508.167 602.54 507.712 601.487 506.802 600.771C505.893 600.056 504.446 599.698 502.463 599.698L497.065 599.698L497.065 608.469L501.85 608.469Z"/>
<path d="M513.81 620L513.81 597.919L528.5 597.919L528.5 599.698L515.895 599.698L515.895 607.672L527.273 607.672L527.273 609.45L515.895 609.45L515.895 618.221L528.807 618.221L528.807 620L513.81 620Z"/>
<path d="M548.219 604.329C547.79 602.448 546.993 601.109 545.827 600.311C544.662 599.514 543.139 599.115 541.258 599.115C539.929 599.115 538.784 599.381 537.823 599.913C536.862 600.444 536.07 601.16 535.446 602.059C534.823 602.959 534.363 603.997 534.066 605.172C533.77 606.348 533.621 607.59 533.621 608.898C533.621 610.125 533.749 611.331 534.005 612.517C534.26 613.703 534.685 614.761 535.278 615.691C535.87 616.621 536.668 617.373 537.67 617.945C538.671 618.518 539.929 618.804 541.442 618.804C542.382 618.804 543.241 618.651 544.018 618.344C544.795 618.037 545.475 617.613 546.057 617.071C546.64 616.529 547.131 615.891 547.529 615.154C547.928 614.418 548.23 613.611 548.434 612.732L550.611 612.732C550.366 613.795 550.008 614.802 549.538 615.753C549.068 616.703 548.449 617.536 547.683 618.252C546.916 618.968 545.986 619.535 544.892 619.954C543.798 620.373 542.515 620.583 541.043 620.583C539.346 620.583 537.895 620.271 536.688 619.647C535.482 619.024 534.496 618.18 533.729 617.117C532.962 616.054 532.405 614.822 532.057 613.422C531.71 612.021 531.536 610.534 531.536 608.96C531.536 606.854 531.797 605.065 532.318 603.593C532.839 602.121 533.56 600.92 534.48 599.989C535.4 599.059 536.484 598.384 537.731 597.965C538.978 597.546 540.338 597.336 541.81 597.336C542.934 597.336 543.982 597.485 544.953 597.781C545.924 598.078 546.783 598.522 547.529 599.115C548.276 599.708 548.889 600.439 549.369 601.308C549.85 602.177 550.182 603.184 550.366 604.329L548.219 604.329Z"/>
<path d="M555.426 620L555.426 597.919L557.512 597.919L557.512 620L555.426 620Z"/>
<path d="M563.001 620L563.001 597.919L577.231 597.919L577.231 599.698L565.087 599.698L565.087 607.672L576.127 607.672L576.127 609.45L565.087 609.45L565.087 620L563.001 620Z"/>
<path d="M581.003 620L581.003 597.919L583.089 597.919L583.089 620L581.003 620Z"/>
<path d="M604.464 604.329C604.035 602.448 603.237 601.109 602.072 600.311C600.907 599.514 599.383 599.115 597.503 599.115C596.174 599.115 595.029 599.381 594.068 599.913C593.107 600.444 592.315 601.16 591.691 602.059C591.067 602.959 590.607 603.997 590.311 605.172C590.014 606.348 589.866 607.59 589.866 608.898C589.866 610.125 589.994 611.331 590.25 612.517C590.505 613.703 590.929 614.761 591.522 615.691C592.115 616.621 592.913 617.373 593.914 617.945C594.916 618.518 596.174 618.804 597.687 618.804C598.627 618.804 599.486 618.651 600.263 618.344C601.04 618.037 601.719 617.613 602.302 617.071C602.885 616.529 603.375 615.891 603.774 615.154C604.173 614.418 604.474 613.611 604.679 612.732L606.856 612.732C606.611 613.795 606.253 614.802 605.783 615.753C605.313 616.703 604.694 617.536 603.927 618.252C603.161 618.968 602.23 619.535 601.137 619.954C600.043 620.373 598.76 620.583 597.288 620.583C595.591 620.583 594.139 620.271 592.933 619.647C591.727 619.024 590.74 618.18 589.974 617.117C589.207 616.054 588.65 614.822 588.302 613.422C587.955 612.021 587.781 610.534 587.781 608.96C587.781 606.854 588.041 605.065 588.563 603.593C589.084 602.121 589.805 600.92 590.725 599.989C591.645 599.059 592.729 598.384 593.976 597.965C595.223 597.546 596.582 597.336 598.055 597.336C599.179 597.336 600.227 597.485 601.198 597.781C602.169 598.078 603.028 598.522 603.774 599.115C604.52 599.708 605.134 600.439 605.614 601.308C606.095 602.177 606.427 603.184 606.611 604.329L604.464 604.329Z"/>
<path d="M618.902 597.919L620.988 597.919L620.988 611.076C620.988 613.815 621.499 615.788 622.521 616.995C623.543 618.201 625.189 618.804 627.458 618.804C628.644 618.804 629.651 618.646 630.479 618.329C631.307 618.012 631.977 617.531 632.488 616.887C632.999 616.243 633.367 615.441 633.592 614.48C633.817 613.519 633.929 612.384 633.929 611.076L633.929 597.919L636.015 597.919L636.015 611.689C636.015 614.572 635.304 616.775 633.883 618.298C632.462 619.821 630.321 620.583 627.458 620.583C624.576 620.583 622.429 619.806 621.018 618.252C619.608 616.698 618.902 614.51 618.902 611.689L618.902 597.919Z"/>
<path d="M641.872 613.406C641.954 614.388 642.174 615.221 642.532 615.906C642.89 616.591 643.35 617.148 643.912 617.577C644.474 618.007 645.123 618.318 645.859 618.513C646.595 618.707 647.382 618.804 648.221 618.804C649.202 618.804 650.05 618.681 650.766 618.436C651.482 618.191 652.064 617.858 652.514 617.439C652.964 617.02 653.296 616.535 653.511 615.983C653.725 615.43 653.833 614.848 653.833 614.234C653.833 613.376 653.639 612.681 653.25 612.149C652.862 611.617 652.356 611.183 651.732 610.846C651.108 610.508 650.393 610.237 649.585 610.033C648.778 609.829 647.95 609.629 647.101 609.435C646.253 609.241 645.425 609.011 644.617 608.745C643.81 608.479 643.094 608.121 642.47 607.672C641.847 607.222 641.341 606.644 640.952 605.939C640.564 605.233 640.37 604.339 640.37 603.255C640.37 602.499 640.528 601.763 640.845 601.047C641.162 600.332 641.632 599.698 642.256 599.146C642.879 598.594 643.661 598.154 644.602 597.827C645.542 597.5 646.626 597.336 647.853 597.336C649.1 597.336 650.188 597.51 651.119 597.858C652.049 598.205 652.821 598.681 653.434 599.284C654.047 599.887 654.507 600.587 654.814 601.385C655.121 602.182 655.274 603.03 655.274 603.93L653.281 603.93C653.281 603.092 653.133 602.366 652.836 601.753C652.54 601.139 652.136 600.638 651.625 600.25C651.114 599.861 650.531 599.575 649.877 599.391C649.222 599.207 648.548 599.115 647.853 599.115C646.789 599.115 645.895 599.263 645.169 599.56C644.443 599.856 643.866 600.24 643.436 600.71C643.007 601.18 642.711 601.702 642.547 602.274C642.383 602.846 642.353 603.419 642.455 603.991C642.578 604.707 642.864 605.279 643.314 605.709C643.764 606.138 644.316 606.491 644.97 606.767C645.624 607.043 646.345 607.268 647.132 607.442C647.919 607.615 648.722 607.799 649.539 607.994C650.357 608.188 651.149 608.418 651.916 608.684C652.683 608.949 653.363 609.307 653.955 609.757C654.548 610.207 655.024 610.784 655.382 611.49C655.739 612.195 655.918 613.079 655.918 614.142C655.918 616.187 655.213 617.771 653.802 618.896C652.391 620.02 650.408 620.583 647.853 620.583C646.708 620.583 645.644 620.434 644.663 620.138C643.682 619.842 642.833 619.392 642.118 618.789C641.402 618.185 640.845 617.439 640.446 616.55C640.048 615.661 639.848 614.613 639.848 613.406L641.872 613.406Z"/>
<path d="M659.752 620L659.752 597.919L674.442 597.919L674.442 599.698L661.837 599.698L661.837 607.672L673.215 607.672L673.215 609.45L661.837 609.45L661.837 618.221L674.748 618.221L674.748 620L659.752 620Z"/>
<path d="M687.046 608.193C687.823 608.193 688.544 608.111 689.208 607.948C689.873 607.784 690.45 607.523 690.941 607.166C691.432 606.808 691.82 606.353 692.106 605.801C692.392 605.249 692.536 604.584 692.536 603.807C692.536 602.99 692.387 602.315 692.091 601.783C691.794 601.252 691.396 600.833 690.895 600.526C690.394 600.219 689.821 600.005 689.177 599.882C688.533 599.759 687.864 599.698 687.169 599.698L680.544 599.698L680.544 608.193L687.046 608.193ZM680.544 609.972L680.544 620L678.459 620L678.459 597.919L687.107 597.919C689.54 597.919 691.401 598.374 692.689 599.284C693.977 600.194 694.621 601.671 694.621 603.715C694.621 605.106 694.34 606.21 693.778 607.028C693.215 607.845 692.3 608.54 691.033 609.113C691.687 609.338 692.198 609.665 692.566 610.094C692.934 610.524 693.21 611.014 693.394 611.566C693.578 612.118 693.696 612.701 693.747 613.314C693.798 613.928 693.834 614.521 693.854 615.093C693.875 615.931 693.911 616.627 693.962 617.179C694.013 617.731 694.074 618.18 694.146 618.528C694.217 618.876 694.304 619.146 694.406 619.341C694.509 619.535 694.631 619.683 694.774 619.785L694.774 620L692.474 620C692.249 619.632 692.091 619.121 691.999 618.467C691.907 617.812 691.835 617.127 691.784 616.412C691.733 615.696 691.692 615.001 691.662 614.326C691.631 613.652 691.575 613.1 691.493 612.67C691.37 612.077 691.171 611.602 690.895 611.244C690.619 610.887 690.287 610.616 689.898 610.432C689.51 610.248 689.075 610.125 688.595 610.064C688.114 610.002 687.619 609.972 687.107 609.972L680.544 609.972Z"/>
<path d="M699.804 613.406C699.886 614.388 700.105 615.221 700.463 615.906C700.821 616.591 701.281 617.148 701.843 617.577C702.405 618.007 703.055 618.318 703.791 618.513C704.527 618.707 705.314 618.804 706.152 618.804C707.133 618.804 707.982 618.681 708.698 618.436C709.413 618.191 709.996 617.858 710.446 617.439C710.895 617.02 711.228 616.535 711.442 615.983C711.657 615.43 711.764 614.848 711.764 614.234C711.764 613.376 711.57 612.681 711.182 612.149C710.793 611.617 710.287 611.183 709.664 610.846C709.04 610.508 708.324 610.237 707.517 610.033C706.709 609.829 705.881 609.629 705.033 609.435C704.184 609.241 703.356 609.011 702.549 608.745C701.741 608.479 701.025 608.121 700.402 607.672C699.778 607.222 699.272 606.644 698.884 605.939C698.495 605.233 698.301 604.339 698.301 603.255C698.301 602.499 698.46 601.763 698.776 601.047C699.093 600.332 699.564 599.698 700.187 599.146C700.811 598.594 701.593 598.154 702.533 597.827C703.474 597.5 704.557 597.336 705.784 597.336C707.031 597.336 708.12 597.51 709.05 597.858C709.98 598.205 710.752 598.681 711.366 599.284C711.979 599.887 712.439 600.587 712.746 601.385C713.052 602.182 713.206 603.03 713.206 603.93L711.212 603.93C711.212 603.092 711.064 602.366 710.768 601.753C710.471 601.139 710.067 600.638 709.556 600.25C709.045 599.861 708.462 599.575 707.808 599.391C707.154 599.207 706.479 599.115 705.784 599.115C704.721 599.115 703.826 599.263 703.101 599.56C702.375 599.856 701.797 600.24 701.368 600.71C700.939 601.18 700.642 601.702 700.479 602.274C700.315 602.846 700.284 603.419 700.387 603.991C700.509 604.707 700.795 605.279 701.245 605.709C701.695 606.138 702.247 606.491 702.901 606.767C703.556 607.043 704.276 607.268 705.063 607.442C705.851 607.615 706.653 607.799 707.471 607.994C708.289 608.188 709.081 608.418 709.848 608.684C710.614 608.949 711.294 609.307 711.887 609.757C712.48 610.207 712.955 610.784 713.313 611.49C713.671 612.195 713.85 613.079 713.85 614.142C713.85 616.187 713.144 617.771 711.734 618.896C710.323 620.02 708.34 620.583 705.784 620.583C704.639 620.583 703.576 620.434 702.595 620.138C701.613 619.842 700.765 619.392 700.049 618.789C699.334 618.185 698.776 617.439 698.378 616.55C697.979 615.661 697.78 614.613 697.78 613.406L699.804 613.406Z"/>
</g>
</g>
</svg>
