<svg stroke-miterlimit="10" style="fill-rule:nonzero;clip-rule:evenodd;stroke-linecap:round;stroke-linejoin:round" viewBox="0 0 1024 1024" xml:space="preserve" xmlns="http://www.w3.org/2000/svg" xmlns:vectornator="http://vectornator.io" xmlns:xlink="http://www.w3.org/1999/xlink">
  <defs>
    <path d="m511.18 68.17 70-2S512 576 768 576c96 0 160 65.52 160 128 0 64-128 256-320 256H416C224 960 96 768 96 704s64-128 160-128c256 0 192-512 192-512l63.18 4.17Z" id="a"/>
  </defs>
  <g vectornator:layerName="Decanter">
    <g vectornator:layerName="Group 2">
      <use fill="none" stroke="#fccc8e" stroke-linecap="butt" stroke-width="2.5" vectornator:layerName="Curve 2" xlink:href="#a"/>
      <clipPath clip-rule="nonzero" id="b">
        <use xlink:href="#a"/>
      </clipPath>
      <g vectornator:layerName="Group 1" fill="#952f2f" fill-opacity=".75" clip-path="url(#b)">
        <path d="M416 912a16 16 0 1 1 32 0 16 16 0 0 1-32 0Z" vectornator:layerName="Oval 497"/>
        <path d="M192 848a16 16 0 1 1 32 0 16 16 0 0 1-32 0Z" vectornator:layerName="Oval 193"/>
        <path d="M672 912a16 16 0 1 1 32 0 16 16 0 0 1-32 0Z" vectornator:layerName="Oval 607"/>
        <path d="M672 944a16 16 0 1 1 32 0 16 16 0 0 1-32 0Z" vectornator:layerName="Oval 194"/>
        <path d="M288 912a16 16 0 1 1 32 0 16 16 0 0 1-32 0Z" vectornator:layerName="Oval 500"/>
        <path d="M64 848a16 16 0 1 1 32 0 16 16 0 0 1-32 0Z" vectornator:layerName="Oval 196"/>
        <path d="M544 912a16 16 0 1 1 32 0 16 16 0 0 1-32 0Z" vectornator:layerName="Oval 608"/>
        <path d="M352 1008a16 16 0 1 1 32 0 16 16 0 0 1-32 0Z" vectornator:layerName="Oval 501"/>
        <path d="M320 848a16 16 0 1 1 32 0 16 16 0 0 1-32 0Z" vectornator:layerName="Oval 197"/>
        <path d="M672 976a16 16 0 1 1 32 0 16 16 0 0 1-32 0Z" vectornator:layerName="Oval 646"/>
        <path d="M640 976a16 16 0 1 1 32 0 16 16 0 0 1-32 0Z" vectornator:layerName="Oval 609"/>
        <path d="M608 1008a16 16 0 1 1 32 0 16 16 0 0 1-32 0Z" vectornator:layerName="Oval 387"/>
        <path d="M288 784a16 16 0 1 1 32 0 16 16 0 0 1-32 0Z" vectornator:layerName="Oval 503"/>
        <path d="M64 720a16 16 0 1 1 32 0 16 16 0 0 1-32 0Z" vectornator:layerName="Oval 199"/>
        <path d="M544 784a16 16 0 1 1 32 0 16 16 0 0 1-32 0Z" vectornator:layerName="Oval 504"/>
        <path d="M320 720a16 16 0 1 1 32 0 16 16 0 0 1-32 0Z" vectornator:layerName="Oval 200"/>
        <path d="M416 784a16 16 0 1 1 32 0 16 16 0 0 1-32 0Z" vectornator:layerName="Oval 505"/>
        <path d="M192 720a16 16 0 1 1 32 0 16 16 0 0 1-32 0Z" vectornator:layerName="Oval 202"/>
        <path d="M672 784a16 16 0 1 1 32 0 16 16 0 0 1-32 0Z" vectornator:layerName="Oval 203"/>
        <path d="M416 880a16 16 0 1 1 32 0 16 16 0 0 1-32 0Z" vectornator:layerName="Oval 506"/>
        <path d="M192 816a16 16 0 1 1 32 0 16 16 0 0 1-32 0Z" vectornator:layerName="Oval 205"/>
        <path d="M672 880a16 16 0 1 1 32 0 16 16 0 0 1-32 0Z" vectornator:layerName="Oval 610"/>
        <path d="M480 976a16 16 0 1 1 32 0 16 16 0 0 1-32 0Z" vectornator:layerName="Oval 206"/>
        <path d="M288 880a16 16 0 1 1 32 0 16 16 0 0 1-32 0Z" vectornator:layerName="Oval 507"/>
        <path d="M64 816a16 16 0 1 1 32 0 16 16 0 0 1-32 0Z" vectornator:layerName="Oval 208"/>
        <path d="M544 880a16 16 0 1 1 32 0 16 16 0 0 1-32 0Z" vectornator:layerName="Oval 611"/>
        <path d="M352 976a16 16 0 1 1 32 0 16 16 0 0 1-32 0Z" vectornator:layerName="Oval 508"/>
        <path d="M320 816a16 16 0 1 1 32 0 16 16 0 0 1-32 0Z" vectornator:layerName="Oval 209"/>
        <path d="M672 944a16 16 0 1 1 32 0 16 16 0 0 1-32 0Z" vectornator:layerName="Oval 612"/>
        <path d="M608 976a16 16 0 1 1 32 0 16 16 0 0 1-32 0Z" vectornator:layerName="Oval 393"/>
        <path d="M288 752a16 16 0 1 1 32 0 16 16 0 0 1-32 0Z" vectornator:layerName="Oval 509"/>
        <path d="M96 656a16 16 0 1 1 32 0 16 16 0 0 1-32 0Z" vectornator:layerName="Oval 211"/>
        <path d="M544 752a16 16 0 1 1 32 0 16 16 0 0 1-32 0Z" vectornator:layerName="Oval 510"/>
        <path d="M320 688a16 16 0 1 1 32 0 16 16 0 0 1-32 0Z" vectornator:layerName="Oval 741"/>
        <path d="M320 656a16 16 0 1 1 32 0 16 16 0 0 1-32 0Z" vectornator:layerName="Oval 212"/>
        <path d="M416 752a16 16 0 1 1 32 0 16 16 0 0 1-32 0Z" vectornator:layerName="Oval 511"/>
        <path d="M192 688a16 16 0 1 1 32 0 16 16 0 0 1-32 0Z" vectornator:layerName="Oval 742"/>
        <path d="M192 656a16 16 0 1 1 32 0 16 16 0 0 1-32 0Z" vectornator:layerName="Oval 214"/>
        <path d="M672 752a16 16 0 1 1 32 0 16 16 0 0 1-32 0Z" vectornator:layerName="Oval 215"/>
        <path d="M416 848a16 16 0 1 0 32 0 16 16 0 0 0-32 0Z" vectornator:layerName="Oval 512"/>
        <path d="M192 784a16 16 0 1 0 32 0 16 16 0 0 0-32 0Z" vectornator:layerName="Oval 217"/>
        <path d="M672 848a16 16 0 1 0 32 0 16 16 0 0 0-32 0Z" vectornator:layerName="Oval 613"/>
        <path d="M480 944a16 16 0 1 0 32 0 16 16 0 0 0-32 0Z" vectornator:layerName="Oval 218"/>
        <path d="M288 848a16 16 0 1 0 32 0 16 16 0 0 0-32 0Z" vectornator:layerName="Oval 513"/>
        <path d="M64 784a16 16 0 1 0 32 0 16 16 0 0 0-32 0Z" vectornator:layerName="Oval 220"/>
        <path d="M544 848a16 16 0 1 0 32 0 16 16 0 0 0-32 0Z" vectornator:layerName="Oval 614"/>
        <path d="M352 944a16 16 0 1 0 32 0 16 16 0 0 0-32 0Z" vectornator:layerName="Oval 514"/>
        <path d="M320 784a16 16 0 1 0 32 0 16 16 0 0 0-32 0Z" vectornator:layerName="Oval 221"/>
        <path d="M672 912a16 16 0 1 0 32 0 16 16 0 0 0-32 0Z" vectornator:layerName="Oval 615"/>
        <path d="M608 944a16 16 0 1 0 32 0 16 16 0 0 0-32 0Z" vectornator:layerName="Oval 399"/>
        <path d="M288 720a16 16 0 1 0 32 0 16 16 0 0 0-32 0Z" vectornator:layerName="Oval 515"/>
        <path d="M64 656a16 16 0 1 0 32 0 16 16 0 0 0-32 0Z" vectornator:layerName="Oval 223"/>
        <path d="M544 720a16 16 0 1 0 32 0 16 16 0 0 0-32 0Z" vectornator:layerName="Oval 516"/>
        <path d="M416 720a16 16 0 1 0 32 0 16 16 0 0 0-32 0Z" vectornator:layerName="Oval 517"/>
        <path d="M672 720a16 16 0 1 0 32 0 16 16 0 0 0-32 0Z" vectornator:layerName="Oval 227"/>
        <path d="M640 720a16 16 0 1 0 32 0 16 16 0 0 0-32 0Z" vectornator:layerName="Oval 402"/>
        <path d="M416 816a16 16 0 1 0 32 0 16 16 0 0 0-32 0Z" vectornator:layerName="Oval 518"/>
        <path d="M192 752a16 16 0 1 0 32 0 16 16 0 0 0-32 0Z" vectornator:layerName="Oval 229"/>
        <path d="M672 816a16 16 0 1 0 32 0 16 16 0 0 0-32 0Z" vectornator:layerName="Oval 230"/>
        <path d="M288 816a16 16 0 1 0 32 0 16 16 0 0 0-32 0Z" vectornator:layerName="Oval 519"/>
        <path d="M96 688a16 16 0 1 0 32 0 16 16 0 0 0-32 0Z" vectornator:layerName="Oval 232"/>
        <path d="M544 816a16 16 0 1 0 32 0 16 16 0 0 0-32 0Z" vectornator:layerName="Oval 520"/>
        <path d="M320 752a16 16 0 1 0 32 0 16 16 0 0 0-32 0Z" vectornator:layerName="Oval 233"/>
        <path d="M672 880a16 16 0 1 0 32 0 16 16 0 0 0-32 0Z" vectornator:layerName="Oval 405"/>
        <path d="M288 688a16 16 0 1 0 32 0 16 16 0 0 0-32 0Z" vectornator:layerName="Oval 743"/>
        <path d="M288 656a16 16 0 1 0 32 0 16 16 0 0 0-32 0Z" vectornator:layerName="Oval 521"/>
        <path d="M64 624a16 16 0 1 0 32 0 16 16 0 0 0-32 0Z" vectornator:layerName="Oval 235"/>
        <path d="M544 688a16 16 0 1 0 32 0 16 16 0 0 0-32 0Z" vectornator:layerName="Oval 744"/>
        <path d="M544 656a16 16 0 1 0 32 0 16 16 0 0 0-32 0Z" vectornator:layerName="Oval 522"/>
        <path d="M416 688a16 16 0 1 0 32 0 16 16 0 0 0-32 0Z" vectornator:layerName="Oval 746"/>
        <path d="M416 656a16 16 0 1 0 32 0 16 16 0 0 0-32 0Z" vectornator:layerName="Oval 523"/>
        <path d="M672 688a16 16 0 1 0 32 0 16 16 0 0 0-32 0Z" vectornator:layerName="Oval 747"/>
        <path d="M672 656a16 16 0 1 0 32 0 16 16 0 0 0-32 0Z" vectornator:layerName="Oval 239"/>
        <path d="M512 912a16 16 0 1 1 32 0 16 16 0 0 1-32 0Z" vectornator:layerName="Oval 616"/>
        <path d="M320 1008a16 16 0 1 1 32 0 16 16 0 0 1-32 0Z" vectornator:layerName="Oval 524"/>
        <path d="M288 848a16 16 0 1 1 32 0 16 16 0 0 1-32 0Z" vectornator:layerName="Oval 241"/>
        <path d="M768 912a16 16 0 1 1 32 0 16 16 0 0 1-32 0Z" vectornator:layerName="Oval 647"/>
        <path d="M608 976a16 16 0 1 1 32 0 16 16 0 0 1-32 0Z" vectornator:layerName="Oval 617"/>
        <path d="M576 1008a16 16 0 1 1 32 0 16 16 0 0 1-32 0Z" vectornator:layerName="Oval 409"/>
        <path d="M1024 912a16 16 0 1 1 32 0 16 16 0 0 1-32 0Z" vectornator:layerName="Oval 243"/>
        <path d="M384 912a16 16 0 1 1 32 0 16 16 0 0 1-32 0Z" vectornator:layerName="Oval 526"/>
        <path d="M160 848a16 16 0 1 1 32 0 16 16 0 0 1-32 0Z" vectornator:layerName="Oval 244"/>
        <path d="M64 592a16 16 0 1 1 32 0 16 16 0 0 1-32 0Z" vectornator:layerName="Oval 82"/>
        <path d="M640 912a16 16 0 1 1 32 0 16 16 0 0 1-32 0Z" vectornator:layerName="Oval 618"/>
        <path d="M672 944a16 16 0 1 1 32 0 16 16 0 0 1-32 0Z" vectornator:layerName="Oval 245"/>
        <path d="M736 976a16 16 0 1 1 32 0 16 16 0 0 1-32 0Z" vectornator:layerName="Oval 411"/>
        <path d="M384 784a16 16 0 1 1 32 0 16 16 0 0 1-32 0Z" vectornator:layerName="Oval 529"/>
        <path d="M160 720a16 16 0 1 1 32 0 16 16 0 0 1-32 0Z" vectornator:layerName="Oval 247"/>
        <path d="M640 784a16 16 0 1 1 32 0 16 16 0 0 1-32 0Z" vectornator:layerName="Oval 248"/>
        <path d="M512 784a16 16 0 1 1 32 0 16 16 0 0 1-32 0Z" vectornator:layerName="Oval 530"/>
        <path d="M288 720a16 16 0 1 1 32 0 16 16 0 0 1-32 0Z" vectornator:layerName="Oval 250"/>
        <path d="M768 784a16 16 0 1 1 32 0 16 16 0 0 1-32 0Z" vectornator:layerName="Oval 415"/>
        <path d="M1024 784a16 16 0 1 1 32 0 16 16 0 0 1-32 0Z" vectornator:layerName="Oval 252"/>
        <path d="M512 880a16 16 0 1 1 32 0 16 16 0 0 1-32 0Z" vectornator:layerName="Oval 619"/>
        <path d="M320 976a16 16 0 1 1 32 0 16 16 0 0 1-32 0Z" vectornator:layerName="Oval 531"/>
        <path d="M288 816a16 16 0 1 1 32 0 16 16 0 0 1-32 0Z" vectornator:layerName="Oval 253"/>
        <path d="M768 880a16 16 0 1 1 32 0 16 16 0 0 1-32 0Z" vectornator:layerName="Oval 620"/>
        <path d="M576 976a16 16 0 1 1 32 0 16 16 0 0 1-32 0Z" vectornator:layerName="Oval 417"/>
        <path d="M480 816a16 16 0 1 1 32 0 16 16 0 0 1-32 0Z" vectornator:layerName="Oval 149"/>
        <path d="M1024 880a16 16 0 1 1 32 0 16 16 0 0 1-32 0Z" vectornator:layerName="Oval 255"/>
        <path d="M384 880a16 16 0 1 1 32 0 16 16 0 0 1-32 0Z" vectornator:layerName="Oval 532"/>
        <path d="M160 816a16 16 0 1 1 32 0 16 16 0 0 1-32 0Z" vectornator:layerName="Oval 256"/>
        <path d="M640 880a16 16 0 1 1 32 0 16 16 0 0 1-32 0Z" vectornator:layerName="Oval 621"/>
        <path d="M448 976a16 16 0 1 1 32 0 16 16 0 0 1-32 0Z" vectornator:layerName="Oval 257"/>
        <path d="M384 752a16 16 0 1 1 32 0 16 16 0 0 1-32 0Z" vectornator:layerName="Oval 533"/>
        <path d="M160 688a16 16 0 1 1 32 0 16 16 0 0 1-32 0Z" vectornator:layerName="Oval 748"/>
        <path d="M160 656a16 16 0 1 1 32 0 16 16 0 0 1-32 0Z" vectornator:layerName="Oval 259"/>
        <path d="M640 752a16 16 0 1 1 32 0 16 16 0 0 1-32 0Z" vectornator:layerName="Oval 713"/>
        <path d="M704 720a16 16 0 1 1 32 0 16 16 0 0 1-32 0Z" vectornator:layerName="Oval 260"/>
        <path d="M512 752a16 16 0 1 1 32 0 16 16 0 0 1-32 0Z" vectornator:layerName="Oval 714"/>
        <path d="M544 848a16 16 0 1 1 32 0 16 16 0 0 1-32 0Z" vectornator:layerName="Oval 598"/>
        <path d="M256 880a16 16 0 1 1 32 0 16 16 0 0 1-32 0Z" vectornator:layerName="Oval 534"/>
        <path d="M288 688a16 16 0 1 1 32 0 16 16 0 0 1-32 0Z" vectornator:layerName="Oval 749"/>
        <path d="M288 656a16 16 0 1 1 32 0 16 16 0 0 1-32 0Z" vectornator:layerName="Oval 262"/>
        <path d="M768 752a16 16 0 1 1 32 0 16 16 0 0 1-32 0Z" vectornator:layerName="Oval 717"/>
        <path d="M768 816a16 16 0 1 1 32 0 16 16 0 0 1-32 0Z" vectornator:layerName="Oval 423"/>
        <path d="M1024 752a16 16 0 1 1 32 0 16 16 0 0 1-32 0Z" vectornator:layerName="Oval 264"/>
        <path d="M512 848a16 16 0 1 0 32 0 16 16 0 0 0-32 0Z" vectornator:layerName="Oval 622"/>
        <path d="M320 944a16 16 0 1 0 32 0 16 16 0 0 0-32 0Z" vectornator:layerName="Oval 535"/>
        <path d="M288 784a16 16 0 1 0 32 0 16 16 0 0 0-32 0Z" vectornator:layerName="Oval 265"/>
        <path d="M768 848a16 16 0 1 0 32 0 16 16 0 0 0-32 0Z" vectornator:layerName="Oval 623"/>
        <path d="M576 944a16 16 0 1 0 32 0 16 16 0 0 0-32 0Z" vectornator:layerName="Oval 425"/>
        <path d="M1024 848a16 16 0 1 0 32 0 16 16 0 0 0-32 0Z" vectornator:layerName="Oval 267"/>
        <path d="M384 848a16 16 0 1 0 32 0 16 16 0 0 0-32 0Z" vectornator:layerName="Oval 536"/>
        <path d="M160 784a16 16 0 1 0 32 0 16 16 0 0 0-32 0Z" vectornator:layerName="Oval 268"/>
        <path d="M640 848a16 16 0 1 0 32 0 16 16 0 0 0-32 0Z" vectornator:layerName="Oval 624"/>
        <path d="M448 944a16 16 0 1 0 32 0 16 16 0 0 0-32 0Z" vectornator:layerName="Oval 269"/>
        <path d="M544 688a16 16 0 1 0 32 0 16 16 0 0 0-32 0Z" vectornator:layerName="Oval 750"/>
        <path d="M544 656a16 16 0 1 0 32 0 16 16 0 0 0-32 0Z" vectornator:layerName="Oval 154"/>
        <path d="M384 720a16 16 0 1 0 32 0 16 16 0 0 0-32 0Z" vectornator:layerName="Oval 537"/>
        <path d="M640 720a16 16 0 1 0 32 0 16 16 0 0 0-32 0Z" vectornator:layerName="Oval 272"/>
        <path d="M512 720a16 16 0 1 0 32 0 16 16 0 0 0-32 0Z" vectornator:layerName="Oval 538"/>
        <path d="M576 752a16 16 0 1 0 32 0 16 16 0 0 0-32 0Z" vectornator:layerName="Oval 739"/>
        <path d="M768 720a16 16 0 1 0 32 0 16 16 0 0 0-32 0Z" vectornator:layerName="Oval 431"/>
        <path d="M1024 720a16 16 0 1 0 32 0 16 16 0 0 0-32 0Z" vectornator:layerName="Oval 276"/>
        <path d="M512 816a16 16 0 1 0 32 0 16 16 0 0 0-32 0Z" vectornator:layerName="Oval 539"/>
        <path d="M256 752a16 16 0 1 0 32 0 16 16 0 0 0-32 0Z" vectornator:layerName="Oval 277"/>
        <path d="M256 720a16 16 0 1 0 32 0 16 16 0 0 0-32 0Z" vectornator:layerName="Oval 93"/>
        <path d="M768 816a16 16 0 1 0 32 0 16 16 0 0 0-32 0Z" vectornator:layerName="Oval 433"/>
        <path d="M1024 816a16 16 0 1 0 32 0 16 16 0 0 0-32 0Z" vectornator:layerName="Oval 279"/>
        <path d="M384 816a16 16 0 1 0 32 0 16 16 0 0 0-32 0Z" vectornator:layerName="Oval 540"/>
        <path d="M160 752a16 16 0 1 0 32 0 16 16 0 0 0-32 0Z" vectornator:layerName="Oval 280"/>
        <path d="M640 816a16 16 0 1 0 32 0 16 16 0 0 0-32 0Z" vectornator:layerName="Oval 281"/>
        <path d="M480 688a16 16 0 1 0 32 0 16 16 0 0 0-32 0Z" vectornator:layerName="Oval 751"/>
        <path d="M480 656a16 16 0 1 0 32 0 16 16 0 0 0-32 0Z" vectornator:layerName="Oval 158"/>
        <path d="M384 688a16 16 0 1 0 32 0 16 16 0 0 0-32 0Z" vectornator:layerName="Oval 752"/>
        <path d="M384 656a16 16 0 1 0 32 0 16 16 0 0 0-32 0Z" vectornator:layerName="Oval 541"/>
        <path d="M640 688a16 16 0 1 0 32 0 16 16 0 0 0-32 0Z" vectornator:layerName="Oval 753"/>
        <path d="M640 656a16 16 0 1 0 32 0 16 16 0 0 0-32 0Z" vectornator:layerName="Oval 284"/>
        <path d="M608 784a16 16 0 1 0 32 0 16 16 0 0 0-32 0Z" vectornator:layerName="Oval 438"/>
        <path d="M512 688a16 16 0 1 0 32 0 16 16 0 0 0-32 0Z" vectornator:layerName="Oval 754"/>
        <path d="M512 656a16 16 0 1 0 32 0 16 16 0 0 0-32 0Z" vectornator:layerName="Oval 542"/>
        <path d="M640 784a16 16 0 1 0 32 0 16 16 0 0 0-32 0Z" vectornator:layerName="Oval 733"/>
        <path d="M192 880a16 16 0 1 0 32 0 16 16 0 0 0-32 0Z" vectornator:layerName="Oval 286"/>
        <path d="M768 688a16 16 0 1 0 32 0 16 16 0 0 0-32 0Z" vectornator:layerName="Oval 755"/>
        <path d="M768 656a16 16 0 1 0 32 0 16 16 0 0 0-32 0Z" vectornator:layerName="Oval 439"/>
        <path d="M1024 688a16 16 0 1 0 32 0 16 16 0 0 0-32 0Z" vectornator:layerName="Oval 288"/>
        <path d="M448 912a16 16 0 1 1 32 0 16 16 0 0 1-32 0Z" vectornator:layerName="Oval 625"/>
        <path d="M256 1008a16 16 0 1 1 32 0 16 16 0 0 1-32 0Z" vectornator:layerName="Oval 599"/>
        <path d="M192 944a16 16 0 1 1 32 0 16 16 0 0 1-32 0Z" vectornator:layerName="Oval 543"/>
        <path d="M224 848a16 16 0 1 1 32 0 16 16 0 0 1-32 0Z" vectornator:layerName="Oval 289"/>
        <path d="M704 912a16 16 0 1 1 32 0 16 16 0 0 1-32 0Z" vectornator:layerName="Oval 626"/>
        <path d="M544 944a16 16 0 1 1 32 0 16 16 0 0 1-32 0Z" vectornator:layerName="Oval 290"/>
        <path d="M320 912a16 16 0 1 1 32 0 16 16 0 0 1-32 0Z" vectornator:layerName="Oval 546"/>
        <path d="M96 848a16 16 0 1 1 32 0 16 16 0 0 1-32 0Z" vectornator:layerName="Oval 292"/>
        <path d="M0 592a16 16 0 1 1 32 0 16 16 0 0 1-32 0Z" vectornator:layerName="Oval 98"/>
        <path d="M576 912a16 16 0 1 1 32 0 16 16 0 0 1-32 0Z" vectornator:layerName="Oval 627"/>
        <path d="M384 1008a16 16 0 1 1 32 0 16 16 0 0 1-32 0Z" vectornator:layerName="Oval 548"/>
        <path d="M352 848a16 16 0 1 1 32 0 16 16 0 0 1-32 0Z" vectornator:layerName="Oval 293"/>
        <path d="M768 944a16 16 0 1 1 32 0 16 16 0 0 1-32 0Z" vectornator:layerName="Oval 649"/>
        <path d="M672 976a16 16 0 1 1 32 0 16 16 0 0 1-32 0Z" vectornator:layerName="Oval 628"/>
        <path d="M640 1008a16 16 0 1 1 32 0 16 16 0 0 1-32 0Z" vectornator:layerName="Oval 442"/>
        <path d="M256 784a16 16 0 1 1 32 0 16 16 0 0 1-32 0Z" vectornator:layerName="Oval 550"/>
        <path d="M96 720a16 16 0 1 1 32 0 16 16 0 0 1-32 0Z" vectornator:layerName="Oval 295"/>
        <path d="M576 784a16 16 0 1 1 32 0 16 16 0 0 1-32 0Z" vectornator:layerName="Oval 551"/>
        <path d="M352 720a16 16 0 1 1 32 0 16 16 0 0 1-32 0Z" vectornator:layerName="Oval 296"/>
        <path d="M448 784a16 16 0 1 1 32 0 16 16 0 0 1-32 0Z" vectornator:layerName="Oval 552"/>
        <path d="M224 720a16 16 0 1 1 32 0 16 16 0 0 1-32 0Z" vectornator:layerName="Oval 298"/>
        <path d="M704 784a16 16 0 1 1 32 0 16 16 0 0 1-32 0Z" vectornator:layerName="Oval 299"/>
        <path d="M448 880a16 16 0 1 1 32 0 16 16 0 0 1-32 0Z" vectornator:layerName="Oval 629"/>
        <path d="M256 976a16 16 0 1 1 32 0 16 16 0 0 1-32 0Z" vectornator:layerName="Oval 600"/>
        <path d="M192 912a16 16 0 1 1 32 0 16 16 0 0 1-32 0Z" vectornator:layerName="Oval 553"/>
        <path d="M224 816a16 16 0 1 1 32 0 16 16 0 0 1-32 0Z" vectornator:layerName="Oval 301"/>
        <path d="M704 880a16 16 0 1 1 32 0 16 16 0 0 1-32 0Z" vectornator:layerName="Oval 630"/>
        <path d="M512 976a16 16 0 1 1 32 0 16 16 0 0 1-32 0Z" vectornator:layerName="Oval 302"/>
        <path d="M320 880a16 16 0 1 1 32 0 16 16 0 0 1-32 0Z" vectornator:layerName="Oval 554"/>
        <path d="M96 816a16 16 0 1 1 32 0 16 16 0 0 1-32 0Z" vectornator:layerName="Oval 304"/>
        <path d="M576 880a16 16 0 1 1 32 0 16 16 0 0 1-32 0Z" vectornator:layerName="Oval 631"/>
        <path d="M384 976a16 16 0 1 1 32 0 16 16 0 0 1-32 0Z" vectornator:layerName="Oval 555"/>
        <path d="M352 816a16 16 0 1 1 32 0 16 16 0 0 1-32 0Z" vectornator:layerName="Oval 305"/>
        <path d="M640 976a16 16 0 1 1 32 0 16 16 0 0 1-32 0Z" vectornator:layerName="Oval 448"/>
        <path d="M160 880a16 16 0 1 1 32 0 16 16 0 0 1-32 0Z" vectornator:layerName="Oval 556"/>
        <path d="M96 688a16 16 0 1 1 32 0 16 16 0 0 1-32 0Z" vectornator:layerName="Oval 307"/>
        <path d="M576 752a16 16 0 1 1 32 0 16 16 0 0 1-32 0Z" vectornator:layerName="Oval 557"/>
        <path d="M352 688a16 16 0 1 1 32 0 16 16 0 0 1-32 0Z" vectornator:layerName="Oval 756"/>
        <path d="M352 656a16 16 0 1 1 32 0 16 16 0 0 1-32 0Z" vectornator:layerName="Oval 308"/>
        <path d="M640 784a16 16 0 1 1 32 0 16 16 0 0 1-32 0Z" vectornator:layerName="Oval 167"/>
        <path d="M448 752a16 16 0 1 1 32 0 16 16 0 0 1-32 0Z" vectornator:layerName="Oval 558"/>
        <path d="M224 688a16 16 0 1 1 32 0 16 16 0 0 1-32 0Z" vectornator:layerName="Oval 757"/>
        <path d="M224 656a16 16 0 1 1 32 0 16 16 0 0 1-32 0Z" vectornator:layerName="Oval 310"/>
        <path d="M704 752a16 16 0 1 1 32 0 16 16 0 0 1-32 0Z" vectornator:layerName="Oval 716"/>
        <path d="M704 816a16 16 0 1 1 32 0 16 16 0 0 1-32 0Z" vectornator:layerName="Oval 311"/>
        <path d="M448 848a16 16 0 1 0 32 0 16 16 0 0 0-32 0Z" vectornator:layerName="Oval 633"/>
        <path d="M256 944a16 16 0 1 0 32 0 16 16 0 0 0-32 0Z" vectornator:layerName="Oval 601"/>
        <path d="M192 880a16 16 0 1 0 32 0 16 16 0 0 0-32 0Z" vectornator:layerName="Oval 559"/>
        <path d="M224 784a16 16 0 1 0 32 0 16 16 0 0 0-32 0Z" vectornator:layerName="Oval 313"/>
        <path d="M320 912a16 16 0 1 0 32 0 16 16 0 0 0-32 0Z" vectornator:layerName="Oval 105"/>
        <path d="M704 848a16 16 0 1 0 32 0 16 16 0 0 0-32 0Z" vectornator:layerName="Oval 634"/>
        <path d="M512 944a16 16 0 1 0 32 0 16 16 0 0 0-32 0Z" vectornator:layerName="Oval 314"/>
        <path d="M640 720a16 16 0 1 0 32 0 16 16 0 0 0-32 0Z" vectornator:layerName="Oval 169"/>
        <path d="M320 848a16 16 0 1 0 32 0 16 16 0 0 0-32 0Z" vectornator:layerName="Oval 560"/>
        <path d="M96 784a16 16 0 1 0 32 0 16 16 0 0 0-32 0Z" vectornator:layerName="Oval 316"/>
        <path d="M576 848a16 16 0 1 0 32 0 16 16 0 0 0-32 0Z" vectornator:layerName="Oval 635"/>
        <path d="M384 944a16 16 0 1 0 32 0 16 16 0 0 0-32 0Z" vectornator:layerName="Oval 561"/>
        <path d="M352 784a16 16 0 1 0 32 0 16 16 0 0 0-32 0Z" vectornator:layerName="Oval 317"/>
        <path d="M640 944a16 16 0 1 0 32 0 16 16 0 0 0-32 0Z" vectornator:layerName="Oval 454"/>
        <path d="M576 720a16 16 0 1 0 32 0 16 16 0 0 0-32 0Z" vectornator:layerName="Oval 563"/>
        <path d="M512 720a16 16 0 1 0 32 0 16 16 0 0 0-32 0Z" vectornator:layerName="Oval 171"/>
        <path d="M448 720a16 16 0 1 0 32 0 16 16 0 0 0-32 0Z" vectornator:layerName="Oval 564"/>
        <path d="M160 752a16 16 0 1 0 32 0 16 16 0 0 0-32 0Z" vectornator:layerName="Oval 322"/>
        <path d="M704 720a16 16 0 1 0 32 0 16 16 0 0 0-32 0Z" vectornator:layerName="Oval 323"/>
        <path d="M448 816a16 16 0 1 0 32 0 16 16 0 0 0-32 0Z" vectornator:layerName="Oval 565"/>
        <path d="M224 752a16 16 0 1 0 32 0 16 16 0 0 0-32 0Z" vectornator:layerName="Oval 325"/>
        <path d="M704 816a16 16 0 1 0 32 0 16 16 0 0 0-32 0Z" vectornator:layerName="Oval 326"/>
        <path d="M128 912a16 16 0 1 0 32 0 16 16 0 0 0-32 0Z" vectornator:layerName="Oval 566"/>
        <path d="M96 752a16 16 0 1 0 32 0 16 16 0 0 0-32 0Z" vectornator:layerName="Oval 328"/>
        <path d="M576 816a16 16 0 1 0 32 0 16 16 0 0 0-32 0Z" vectornator:layerName="Oval 567"/>
        <path d="M352 752a16 16 0 1 0 32 0 16 16 0 0 0-32 0Z" vectornator:layerName="Oval 329"/>
        <path d="M608 720a16 16 0 1 0 32 0 16 16 0 0 0-32 0Z" vectornator:layerName="Oval 174"/>
        <path d="M704 944a16 16 0 1 0 32 0 16 16 0 0 0-32 0Z" vectornator:layerName="Oval 460"/>
        <path d="M480 848a16 16 0 1 0 32 0 16 16 0 0 0-32 0Z" vectornator:layerName="Oval 461"/>
        <path d="M320 688a16 16 0 1 0 32 0 16 16 0 0 0-32 0Z" vectornator:layerName="Oval 758"/>
        <path d="M192 688a16 16 0 1 0 32 0 16 16 0 0 0-32 0Z" vectornator:layerName="Oval 736"/>
        <path d="M576 688a16 16 0 1 0 32 0 16 16 0 0 0-32 0Z" vectornator:layerName="Oval 760"/>
        <path d="M576 656a16 16 0 1 0 32 0 16 16 0 0 0-32 0Z" vectornator:layerName="Oval 569"/>
        <path d="M736 752a16 16 0 1 0 32 0 16 16 0 0 0-32 0Z" vectornator:layerName="Oval 761"/>
        <path d="M512 656a16 16 0 1 0 32 0 16 16 0 0 0-32 0Z" vectornator:layerName="Oval 734"/>
        <path d="M512 912a16 16 0 1 0 32 0 16 16 0 0 0-32 0Z" vectornator:layerName="Oval 732"/>
        <path d="M128 784a16 16 0 1 0 32 0 16 16 0 0 0-32 0Z" vectornator:layerName="Oval 332"/>
        <path d="M448 688a16 16 0 1 0 32 0 16 16 0 0 0-32 0Z" vectornator:layerName="Oval 763"/>
        <path d="M448 656a16 16 0 1 0 32 0 16 16 0 0 0-32 0Z" vectornator:layerName="Oval 570"/>
        <path d="M704 688a16 16 0 1 0 32 0 16 16 0 0 0-32 0Z" vectornator:layerName="Oval 764"/>
        <path d="M704 656a16 16 0 1 0 32 0 16 16 0 0 0-32 0Z" vectornator:layerName="Oval 335"/>
        <path d="M480 912a16 16 0 1 1 32 0 16 16 0 0 1-32 0Z" vectornator:layerName="Oval 637"/>
        <path d="M288 1008a16 16 0 1 1 32 0 16 16 0 0 1-32 0Z" vectornator:layerName="Oval 602"/>
        <path d="M224 944a16 16 0 1 1 32 0 16 16 0 0 1-32 0Z" vectornator:layerName="Oval 571"/>
        <path d="M256 848a16 16 0 1 1 32 0 16 16 0 0 1-32 0Z" vectornator:layerName="Oval 337"/>
        <path d="M736 912a16 16 0 1 1 32 0 16 16 0 0 1-32 0Z" vectornator:layerName="Oval 650"/>
        <path d="M576 976a16 16 0 1 1 32 0 16 16 0 0 1-32 0Z" vectornator:layerName="Oval 638"/>
        <path d="M544 1008a16 16 0 1 1 32 0 16 16 0 0 1-32 0Z" vectornator:layerName="Oval 465"/>
        <path d="M576 720a16 16 0 1 1 32 0 16 16 0 0 1-32 0Z" vectornator:layerName="Oval 338"/>
        <path d="M992 912a16 16 0 1 1 32 0 16 16 0 0 1-32 0Z" vectornator:layerName="Oval 339"/>
        <path d="M352 912a16 16 0 1 1 32 0 16 16 0 0 1-32 0Z" vectornator:layerName="Oval 573"/>
        <path d="M128 848a16 16 0 1 1 32 0 16 16 0 0 1-32 0Z" vectornator:layerName="Oval 340"/>
        <path d="M96 656a16 16 0 1 1 32 0 16 16 0 0 1-32 0Z" vectornator:layerName="Oval 114"/>
        <path d="M608 912a16 16 0 1 1 32 0 16 16 0 0 1-32 0Z" vectornator:layerName="Oval 639"/>
        <path d="M416 1008a16 16 0 1 1 32 0 16 16 0 0 1-32 0Z" vectornator:layerName="Oval 575"/>
        <path d="M384 848a16 16 0 1 1 32 0 16 16 0 0 1-32 0Z" vectornator:layerName="Oval 341"/>
        <path d="M640 848a16 16 0 1 1 32 0 16 16 0 0 1-32 0Z" vectornator:layerName="Oval 178"/>
        <path d="M736 976a16 16 0 1 1 32 0 16 16 0 0 1-32 0Z" vectornator:layerName="Oval 651"/>
        <path d="M704 976a16 16 0 1 1 32 0 16 16 0 0 1-32 0Z" vectornator:layerName="Oval 467"/>
        <path d="M416 848a16 16 0 1 1 32 0 16 16 0 0 1-32 0Z" vectornator:layerName="Oval 577"/>
        <path d="M128 720a16 16 0 1 1 32 0 16 16 0 0 1-32 0Z" vectornator:layerName="Oval 343"/>
        <path d="M608 784a16 16 0 1 1 32 0 16 16 0 0 1-32 0Z" vectornator:layerName="Oval 578"/>
        <path d="M384 720a16 16 0 1 1 32 0 16 16 0 0 1-32 0Z" vectornator:layerName="Oval 344"/>
        <path d="M480 784a16 16 0 1 1 32 0 16 16 0 0 1-32 0Z" vectornator:layerName="Oval 579"/>
        <path d="M736 784a16 16 0 1 1 32 0 16 16 0 0 1-32 0Z" vectornator:layerName="Oval 471"/>
        <path d="M992 784a16 16 0 1 1 32 0 16 16 0 0 1-32 0Z" vectornator:layerName="Oval 348"/>
        <path d="M480 880a16 16 0 1 1 32 0 16 16 0 0 1-32 0Z" vectornator:layerName="Oval 640"/>
        <path d="M288 976a16 16 0 1 1 32 0 16 16 0 0 1-32 0Z" vectornator:layerName="Oval 603"/>
        <path d="M224 912a16 16 0 1 1 32 0 16 16 0 0 1-32 0Z" vectornator:layerName="Oval 580"/>
        <path d="M256 816a16 16 0 1 1 32 0 16 16 0 0 1-32 0Z" vectornator:layerName="Oval 349"/>
        <path d="M736 880a16 16 0 1 1 32 0 16 16 0 0 1-32 0Z" vectornator:layerName="Oval 641"/>
        <path d="M544 976a16 16 0 1 1 32 0 16 16 0 0 1-32 0Z" vectornator:layerName="Oval 473"/>
        <path d="M992 880a16 16 0 1 1 32 0 16 16 0 0 1-32 0Z" vectornator:layerName="Oval 351"/>
        <path d="M352 880a16 16 0 1 1 32 0 16 16 0 0 1-32 0Z" vectornator:layerName="Oval 581"/>
        <path d="M128 816a16 16 0 1 1 32 0 16 16 0 0 1-32 0Z" vectornator:layerName="Oval 352"/>
        <path d="M608 880a16 16 0 1 1 32 0 16 16 0 0 1-32 0Z" vectornator:layerName="Oval 642"/>
        <path d="M416 976a16 16 0 1 1 32 0 16 16 0 0 1-32 0Z" vectornator:layerName="Oval 582"/>
        <path d="M384 816a16 16 0 1 1 32 0 16 16 0 0 1-32 0Z" vectornator:layerName="Oval 353"/>
        <path d="M736 944a16 16 0 1 1 32 0 16 16 0 0 1-32 0Z" vectornator:layerName="Oval 475"/>
        <path d="M352 752a16 16 0 1 1 32 0 16 16 0 0 1-32 0Z" vectornator:layerName="Oval 583"/>
        <path d="M128 688a16 16 0 1 1 32 0 16 16 0 0 1-32 0Z" vectornator:layerName="Oval 765"/>
        <path d="M128 656a16 16 0 1 1 32 0 16 16 0 0 1-32 0Z" vectornator:layerName="Oval 355"/>
        <path d="M608 752a16 16 0 1 1 32 0 16 16 0 0 1-32 0Z" vectornator:layerName="Oval 715"/>
        <path d="M608 848a16 16 0 1 1 32 0 16 16 0 0 1-32 0Z" vectornator:layerName="Oval 606"/>
        <path d="M256 912a16 16 0 1 1 32 0 16 16 0 0 1-32 0Z" vectornator:layerName="Oval 584"/>
        <path d="M384 688a16 16 0 1 1 32 0 16 16 0 0 1-32 0Z" vectornator:layerName="Oval 766"/>
        <path d="M384 656a16 16 0 1 1 32 0 16 16 0 0 1-32 0Z" vectornator:layerName="Oval 356"/>
        <path d="M480 752a16 16 0 1 1 32 0 16 16 0 0 1-32 0Z" vectornator:layerName="Oval 585"/>
        <path d="M256 688a16 16 0 1 1 32 0 16 16 0 0 1-32 0Z" vectornator:layerName="Oval 767"/>
        <path d="M256 656a16 16 0 1 1 32 0 16 16 0 0 1-32 0Z" vectornator:layerName="Oval 740"/>
        <path d="M736 752a16 16 0 1 1 32 0 16 16 0 0 1-32 0Z" vectornator:layerName="Oval 712"/>
        <path d="M992 752a16 16 0 1 1 32 0 16 16 0 0 1-32 0Z" vectornator:layerName="Oval 360"/>
        <path d="M480 848a16 16 0 1 0 32 0 16 16 0 0 0-32 0Z" vectornator:layerName="Oval 643"/>
        <path d="M288 944a16 16 0 1 0 32 0 16 16 0 0 0-32 0Z" vectornator:layerName="Oval 604"/>
        <path d="M224 880a16 16 0 1 0 32 0 16 16 0 0 0-32 0Z" vectornator:layerName="Oval 586"/>
        <path d="M736 848a16 16 0 1 0 32 0 16 16 0 0 0-32 0Z" vectornator:layerName="Oval 644"/>
        <path d="M544 944a16 16 0 1 0 32 0 16 16 0 0 0-32 0Z" vectornator:layerName="Oval 481"/>
        <path d="M672 720a16 16 0 1 0 32 0 16 16 0 0 0-32 0Z" vectornator:layerName="Oval 362"/>
        <path d="M640 720a16 16 0 1 0 32 0 16 16 0 0 0-32 0Z" vectornator:layerName="Oval 185"/>
        <path d="M992 848a16 16 0 1 0 32 0 16 16 0 0 0-32 0Z" vectornator:layerName="Oval 363"/>
        <path d="M352 848a16 16 0 1 0 32 0 16 16 0 0 0-32 0Z" vectornator:layerName="Oval 587"/>
        <path d="M128 784a16 16 0 1 0 32 0 16 16 0 0 0-32 0Z" vectornator:layerName="Oval 364"/>
        <path d="M608 848a16 16 0 1 0 32 0 16 16 0 0 0-32 0Z" vectornator:layerName="Oval 645"/>
        <path d="M416 944a16 16 0 1 0 32 0 16 16 0 0 0-32 0Z" vectornator:layerName="Oval 588"/>
        <path d="M384 784a16 16 0 1 0 32 0 16 16 0 0 0-32 0Z" vectornator:layerName="Oval 365"/>
        <path d="M736 912a16 16 0 1 0 32 0 16 16 0 0 0-32 0Z" vectornator:layerName="Oval 483"/>
        <path d="M352 912a16 16 0 1 0 32 0 16 16 0 0 0-32 0Z" vectornator:layerName="Oval 589"/>
        <path d="M608 720a16 16 0 1 0 32 0 16 16 0 0 0-32 0Z" vectornator:layerName="Oval 590"/>
        <path d="M480 720a16 16 0 1 0 32 0 16 16 0 0 0-32 0Z" vectornator:layerName="Oval 591"/>
        <path d="M576 848a16 16 0 1 0 32 0 16 16 0 0 0-32 0Z" vectornator:layerName="Oval 370"/>
        <path d="M736 720a16 16 0 1 0 32 0 16 16 0 0 0-32 0Z" vectornator:layerName="Oval 487"/>
        <path d="M992 720a16 16 0 1 0 32 0 16 16 0 0 0-32 0Z" vectornator:layerName="Oval 372"/>
        <path d="M480 816a16 16 0 1 0 32 0 16 16 0 0 0-32 0Z" vectornator:layerName="Oval 605"/>
        <path d="M224 848a16 16 0 1 0 32 0 16 16 0 0 0-32 0Z" vectornator:layerName="Oval 592"/>
        <path d="M640 752a16 16 0 1 0 32 0 16 16 0 0 0-32 0Z" vectornator:layerName="Oval 737"/>
        <path d="M544 784a16 16 0 1 0 32 0 16 16 0 0 0-32 0Z" vectornator:layerName="Oval 125"/>
        <path d="M736 816a16 16 0 1 0 32 0 16 16 0 0 0-32 0Z" vectornator:layerName="Oval 489"/>
        <path d="M992 816a16 16 0 1 0 32 0 16 16 0 0 0-32 0Z" vectornator:layerName="Oval 375"/>
        <path d="M576 912a16 16 0 1 0 32 0 16 16 0 0 0-32 0Z" vectornator:layerName="Oval 593"/>
        <path d="M128 752a16 16 0 1 0 32 0 16 16 0 0 0-32 0Z" vectornator:layerName="Oval 376"/>
        <path d="M608 816a16 16 0 1 0 32 0 16 16 0 0 0-32 0Z" vectornator:layerName="Oval 594"/>
        <path d="M736 688a16 16 0 1 0 32 0 16 16 0 0 0-32 0Z" vectornator:layerName="Oval 768"/>
        <path d="M736 656a16 16 0 1 0 32 0 16 16 0 0 0-32 0Z" vectornator:layerName="Oval 699"/>
        <path d="M384 944a16 16 0 1 0 32 0 16 16 0 0 0-32 0Z" vectornator:layerName="Oval 735"/>
        <path d="M416 944a16 16 0 1 0 32 0 16 16 0 0 0-32 0Z" vectornator:layerName="Oval 595"/>
        <path d="M608 688a16 16 0 1 0 32 0 16 16 0 0 0-32 0Z" vectornator:layerName="Oval 769"/>
        <path d="M608 656a16 16 0 1 0 32 0 16 16 0 0 0-32 0Z" vectornator:layerName="Oval 596"/>
        <path d="M608 720a16 16 0 1 0 32 0 16 16 0 0 0-32 0Z" vectornator:layerName="Oval 494"/>
        <path d="M480 688a16 16 0 1 0 32 0 16 16 0 0 0-32 0Z" vectornator:layerName="Oval 770"/>
        <path d="M384 720a16 16 0 1 0 32 0 16 16 0 0 0-32 0Z" vectornator:layerName="Oval 597"/>
        <path d="M512 752a16 16 0 1 0 32 0 16 16 0 0 0-32 0Z" vectornator:layerName="Oval 730"/>
        <path d="M192 752a16 16 0 1 0 32 0 16 16 0 0 0-32 0Z" vectornator:layerName="Oval 382"/>
        <path d="M736 688a16 16 0 1 0 32 0 16 16 0 0 0-32 0Z" vectornator:layerName="Oval 771"/>
        <path d="M736 656a16 16 0 1 0 32 0 16 16 0 0 0-32 0Z" vectornator:layerName="Oval 495"/>
        <path d="M928 912a16 16 0 1 1 32 0 16 16 0 0 1-32 0Z" vectornator:layerName="Oval 385"/>
        <path d="M800 912a16 16 0 1 1 32 0 16 16 0 0 1-32 0Z" vectornator:layerName="Oval 652"/>
        <path d="M800 784a16 16 0 1 1 32 0 16 16 0 0 1-32 0Z" vectornator:layerName="Oval 388"/>
        <path d="M928 784a16 16 0 1 1 32 0 16 16 0 0 1-32 0Z" vectornator:layerName="Oval 389"/>
        <path d="M928 880a16 16 0 1 1 32 0 16 16 0 0 1-32 0Z" vectornator:layerName="Oval 391"/>
        <path d="M800 880a16 16 0 1 1 32 0 16 16 0 0 1-32 0Z" vectornator:layerName="Oval 653"/>
        <path d="M800 752a16 16 0 1 1 32 0 16 16 0 0 1-32 0Z" vectornator:layerName="Oval 394"/>
        <path d="M928 752a16 16 0 1 1 32 0 16 16 0 0 1-32 0Z" vectornator:layerName="Oval 395"/>
        <path d="M928 848a16 16 0 1 0 32 0 16 16 0 0 0-32 0Z" vectornator:layerName="Oval 397"/>
        <path d="M800 848a16 16 0 1 0 32 0 16 16 0 0 0-32 0Z" vectornator:layerName="Oval 654"/>
        <path d="M800 720a16 16 0 1 0 32 0 16 16 0 0 0-32 0Z" vectornator:layerName="Oval 400"/>
        <path d="M928 720a16 16 0 1 0 32 0 16 16 0 0 0-32 0Z" vectornator:layerName="Oval 401"/>
        <path d="M928 816a16 16 0 1 0 32 0 16 16 0 0 0-32 0Z" vectornator:layerName="Oval 403"/>
        <path d="M800 816a16 16 0 1 0 32 0 16 16 0 0 0-32 0Z" vectornator:layerName="Oval 655"/>
        <path d="M800 688a16 16 0 1 0 32 0 16 16 0 0 0-32 0Z" vectornator:layerName="Oval 745"/>
        <path d="M800 656a16 16 0 1 0 32 0 16 16 0 0 0-32 0Z" vectornator:layerName="Oval 406"/>
        <path d="M928 688a16 16 0 1 0 32 0 16 16 0 0 0-32 0Z" vectornator:layerName="Oval 407"/>
        <path d="M896 912a16 16 0 1 1 32 0 16 16 0 0 1-32 0Z" vectornator:layerName="Oval 648"/>
        <path d="M896 784a16 16 0 1 1 32 0 16 16 0 0 1-32 0Z" vectornator:layerName="Oval 413"/>
        <path d="M896 880a16 16 0 1 1 32 0 16 16 0 0 1-32 0Z" vectornator:layerName="Oval 419"/>
        <path d="M896 752a16 16 0 1 1 32 0 16 16 0 0 1-32 0Z" vectornator:layerName="Oval 421"/>
        <path d="M896 848a16 16 0 1 0 32 0 16 16 0 0 0-32 0Z" vectornator:layerName="Oval 427"/>
        <path d="M896 720a16 16 0 1 0 32 0 16 16 0 0 0-32 0Z" vectornator:layerName="Oval 429"/>
        <path d="M896 816a16 16 0 1 0 32 0 16 16 0 0 0-32 0Z" vectornator:layerName="Oval 435"/>
        <path d="M896 688a16 16 0 1 0 32 0 16 16 0 0 0-32 0Z" vectornator:layerName="Oval 437"/>
        <path d="M960 912a16 16 0 1 1 32 0 16 16 0 0 1-32 0Z" vectornator:layerName="Oval 291"/>
        <path d="M832 912a16 16 0 1 1 32 0 16 16 0 0 1-32 0Z" vectornator:layerName="Oval 660"/>
        <path d="M832 784a16 16 0 1 1 32 0 16 16 0 0 1-32 0Z" vectornator:layerName="Oval 444"/>
        <path d="M960 784a16 16 0 1 1 32 0 16 16 0 0 1-32 0Z" vectornator:layerName="Oval 300"/>
        <path d="M960 880a16 16 0 1 1 32 0 16 16 0 0 1-32 0Z" vectornator:layerName="Oval 303"/>
        <path d="M832 880a16 16 0 1 1 32 0 16 16 0 0 1-32 0Z" vectornator:layerName="Oval 632"/>
        <path d="M832 752a16 16 0 1 1 32 0 16 16 0 0 1-32 0Z" vectornator:layerName="Oval 450"/>
        <path d="M960 752a16 16 0 1 1 32 0 16 16 0 0 1-32 0Z" vectornator:layerName="Oval 312"/>
        <path d="M960 848a16 16 0 1 0 32 0 16 16 0 0 0-32 0Z" vectornator:layerName="Oval 315"/>
        <path d="M832 848a16 16 0 1 0 32 0 16 16 0 0 0-32 0Z" vectornator:layerName="Oval 636"/>
        <path d="M832 720a16 16 0 1 0 32 0 16 16 0 0 0-32 0Z" vectornator:layerName="Oval 456"/>
        <path d="M960 720a16 16 0 1 0 32 0 16 16 0 0 0-32 0Z" vectornator:layerName="Oval 324"/>
        <path d="M960 816a16 16 0 1 0 32 0 16 16 0 0 0-32 0Z" vectornator:layerName="Oval 327"/>
        <path d="M832 816a16 16 0 1 0 32 0 16 16 0 0 0-32 0Z" vectornator:layerName="Oval 656"/>
        <path d="M832 688a16 16 0 1 0 32 0 16 16 0 0 0-32 0Z" vectornator:layerName="Oval 759"/>
        <path d="M832 656a16 16 0 1 0 32 0 16 16 0 0 0-32 0Z" vectornator:layerName="Oval 568"/>
        <path d="M832 688a16 16 0 1 0 32 0 16 16 0 0 0-32 0Z" vectornator:layerName="Oval 762"/>
        <path d="M864 656a16 16 0 1 0 32 0 16 16 0 0 0-32 0Z" vectornator:layerName="Oval 462"/>
        <path d="M960 688a16 16 0 1 0 32 0 16 16 0 0 0-32 0Z" vectornator:layerName="Oval 336"/>
        <path d="M864 912a16 16 0 1 1 32 0 16 16 0 0 1-32 0Z" vectornator:layerName="Oval 657"/>
        <path d="M864 784a16 16 0 1 1 32 0 16 16 0 0 1-32 0Z" vectornator:layerName="Oval 469"/>
        <path d="M864 880a16 16 0 1 1 32 0 16 16 0 0 1-32 0Z" vectornator:layerName="Oval 658"/>
        <path d="M864 752a16 16 0 1 1 32 0 16 16 0 0 1-32 0Z" vectornator:layerName="Oval 477"/>
        <path d="M864 752a16 16 0 1 1 32 0 16 16 0 0 1-32 0Z" vectornator:layerName="Oval 479"/>
        <path d="M864 848a16 16 0 1 0 32 0 16 16 0 0 0-32 0Z" vectornator:layerName="Oval 659"/>
        <path d="M864 720a16 16 0 1 0 32 0 16 16 0 0 0-32 0Z" vectornator:layerName="Oval 485"/>
        <path d="M864 816a16 16 0 1 0 32 0 16 16 0 0 0-32 0Z" vectornator:layerName="Oval 491"/>
        <path d="M864 688a16 16 0 1 0 32 0 16 16 0 0 0-32 0Z" vectornator:layerName="Oval 493"/>
        <path d="M896 656a16 16 0 1 0 32 0 16 16 0 0 0-32 0Z" vectornator:layerName="Oval 384"/>
      </g>
    </g>
  </g>
</svg>
